<svg width="40" height="41" viewBox="0 0 40 41" fill="none" xmlns="http://www.w3.org/2000/svg">
<circle cx="20" cy="20.8732" r="20" fill="#00B074" fill-opacity="0.15"/>
<g clip-path="url(#clip0_13_1284)">
<path d="M20.9995 16.8654C20.9995 17.9622 20.9808 18.8575 20.962 18.8575C20.9433 18.8575 20.4745 18.656 19.9214 18.4075C19.3683 18.1591 18.8714 17.9435 18.8198 17.92C18.7261 17.8825 18.7261 17.9013 18.7402 24.6279L18.7495 31.3732H19.8511C20.5073 31.3732 20.9527 31.3544 20.9527 31.331C20.9527 31.3029 20.9152 31.1435 20.873 30.9654C20.812 30.7216 20.7933 30.4404 20.7933 29.756C20.7933 28.945 20.8027 28.8232 20.9152 28.3638C21.4964 26.0529 23.1792 24.37 25.4667 23.7982C26.3058 23.5872 27.623 23.5919 28.3964 23.8075L28.4995 23.8357V19.3544V14.8732H24.7495H20.9995V16.8654Z" fill="#228F45"/>
<path d="M21 13.3732V14.8732H24.75H28.5V13.3732V11.8732H24.75H21V13.3732Z" fill="#ECC115"/>
<path d="M9 23.1232V31.3732H13.875H18.75V24.6466C18.75 20.695 18.7313 17.92 18.7078 17.92C18.6844 17.92 18.2156 18.1216 17.6672 18.3654C17.1188 18.6091 16.6313 18.82 16.5844 18.8388C16.5047 18.8622 16.5 18.7732 16.5 16.87V14.8732H12.75H9V23.1232ZM16.0781 25.2794V25.9825H13.9453H11.8125V25.2794V24.5763H13.9453H16.0781V25.2794ZM14.6484 28.1154V28.8185H13.2422H11.8359L11.8219 28.1013L11.8078 27.3888L13.2281 27.3982L14.6484 27.4122V28.1154Z" fill="#228F45"/>
<path d="M9 13.3732V14.8732H12.75H16.5V13.3732V11.8732H12.75H9V13.3732Z" fill="#ECEC15"/>
<path d="M11.8125 25.2794V25.9825H13.9453H16.0781V25.2794V24.5763H13.9453H11.8125V25.2794Z" fill="#ECEC15"/>
<path d="M11.8219 28.1013L11.836 28.8185H13.2422H14.6485V28.1154V27.4122L13.2282 27.3982L11.8079 27.3888L11.8219 28.1013Z" fill="#ECEC15"/>
<path d="M18.75 14.8634V17.854L19.875 18.3509L21 18.8478V15.3603V11.8728H19.875H18.75V14.8634Z" fill="#C1156B"/>
<path d="M26.9062 26.179V28.7243L27.8109 27.8197L28.7109 26.9197L29.2172 27.4259L29.7187 27.9275L28.8047 28.8415L27.8906 29.7556L28.8047 30.6697L29.7187 31.5837L29.2172 32.09L28.7109 32.5915L27.8109 31.6915L26.9062 30.7868V33.3228V35.8634L27.225 35.84C28.8984 35.7275 30.3281 35.029 31.4437 33.7868C32.175 32.9712 32.6859 31.9212 32.8828 30.8337C32.9859 30.2759 32.9859 29.2353 32.8828 28.6775C32.4656 26.3525 30.675 24.4306 28.3969 23.8493C28.1578 23.7931 27.8156 23.7275 27.6328 23.7134C27.4547 23.6947 27.2156 23.6712 27.1078 23.6572L26.9062 23.6337V26.179Z" fill="#C1156B"/>
<path d="M26.8828 26.1697C26.8828 27.5759 26.8875 28.1478 26.8922 27.4447C26.9016 26.7462 26.9016 25.5931 26.8922 24.89C26.8875 24.1915 26.8828 24.7634 26.8828 26.1697Z" fill="#EC156B"/>
<path d="M28.9222 24.0094C29.3394 24.1641 29.8597 24.4219 30.2019 24.6375C30.7457 24.9891 31.4254 25.6359 31.8332 26.1984C32.1425 26.6203 32.5925 27.5391 32.7379 28.0453C32.8035 28.2656 32.855 28.4063 32.855 28.3547C32.8597 28.2375 32.616 27.5109 32.4379 27.1266C31.9691 26.0906 31.0035 25.05 29.9441 24.4313C29.616 24.2391 28.7488 23.8734 28.6363 23.8734C28.5988 23.8781 28.73 23.9391 28.9222 24.0094Z" fill="#EC156B"/>
<path d="M32.9439 29.1232C32.9532 29.3669 32.972 29.5779 32.9814 29.5872C33.0142 29.6247 32.9954 29.0482 32.9579 28.8654C32.9298 28.7388 32.9251 28.8279 32.9439 29.1232Z" fill="#EC156B"/>
<path d="M32.9627 30.1357C32.958 30.2669 32.9439 30.4779 32.9299 30.6044L32.9111 30.8341L32.958 30.6044C32.9814 30.4779 32.9955 30.2669 32.9861 30.1357L32.9721 29.8966L32.9627 30.1357Z" fill="#EC156B"/>
<path d="M26.8828 33.3415C26.8828 34.7478 26.8875 35.3197 26.8922 34.6165C26.9016 33.9181 26.9016 32.765 26.8922 32.0618C26.8875 31.3634 26.8828 31.9353 26.8828 33.3415Z" fill="#EC156B"/>
<path d="M32.8036 31.2081C32.7051 31.6487 32.4473 32.2956 32.1942 32.7409C31.3786 34.1847 30.0145 35.23 28.3973 35.6659C28.1536 35.7316 28.0551 35.7691 28.1723 35.755C28.2895 35.7409 28.5661 35.6659 28.7911 35.5909C30.5114 35.0144 31.8708 33.7581 32.5505 32.1175C32.738 31.6628 32.9208 31.0347 32.8973 30.9222C32.888 30.88 32.8458 31.0112 32.8036 31.2081Z" fill="#EC156B"/>
<path d="M27.3516 35.8259L27.0234 35.854L27.3047 35.8634C27.4594 35.8634 27.6703 35.8493 27.7734 35.8306C27.9234 35.7978 27.9328 35.7884 27.8203 35.7931C27.7453 35.7931 27.5344 35.8072 27.3516 35.8259Z" fill="#EC156B"/>
<path d="M16.5 15.3603V18.8478L17.625 18.3462L18.75 17.8493V14.8587V11.8728H17.625H16.5V15.3603Z" fill="#EC406B"/>
<path d="M26.3906 23.6947C23.6953 23.8822 21.4266 25.9212 20.9016 28.6259C20.7844 29.2259 20.775 30.2384 20.8828 30.8056C20.925 31.0212 20.9672 31.2556 20.9766 31.3212C21.0938 32.2681 22.0172 33.7212 22.9922 34.49C23.1234 34.5931 23.2359 34.6915 23.25 34.7056C23.3016 34.7665 23.8266 35.0853 24.1266 35.2353C24.8391 35.5962 25.6359 35.8118 26.3766 35.8587L26.8594 35.8868L26.8688 33.3275L26.8828 30.7634L25.9688 31.6775L25.0547 32.5915L24.5484 32.09L24.0469 31.5837L24.9609 30.6697L25.875 29.7556L24.9609 28.8415L24.0469 27.9275L24.5484 27.4259L25.0547 26.9197L25.9688 27.8337L26.8828 28.7478L26.8688 27.0931C26.8641 26.1884 26.8547 25.04 26.8453 24.5525L26.8359 23.6618L26.3906 23.6947Z" fill="#EC406B"/>
<path d="M24.5391 27.445L24.0703 27.9279L24.5531 27.4591C24.9984 27.0232 25.0547 26.9669 25.0172 26.9669C25.0125 26.9669 24.7969 27.1825 24.5391 27.445Z" fill="#ECC1C1"/>
<path d="M25.9457 27.8575C26.4332 28.345 26.8457 28.7482 26.8597 28.7482C26.8738 28.7482 26.4801 28.345 25.9926 27.8575C25.5051 27.3654 25.0926 26.9669 25.0785 26.9669C25.0644 26.9669 25.4582 27.3654 25.9457 27.8575Z" fill="#ECC1C1"/>
<path d="M24.9613 28.8419C25.4488 29.3294 25.8613 29.7325 25.8754 29.7325C25.8894 29.7325 25.4957 29.3294 25.0082 28.8419C24.5207 28.3497 24.1082 27.9513 24.0941 27.9513C24.0801 27.9513 24.4738 28.3497 24.9613 28.8419Z" fill="#ECC1C1"/>
<path d="M24.9609 30.6794L24.0703 31.5841L24.975 30.6935C25.8094 29.8685 25.8984 29.7794 25.8609 29.7794C25.8563 29.7794 25.4484 30.1872 24.9609 30.6794Z" fill="#ECC1C1"/>
<path d="M25.9453 31.6638L25.0547 32.5685L25.9594 31.6779C26.7938 30.8529 26.8828 30.7638 26.8453 30.7638C26.8406 30.7638 26.4328 31.1716 25.9453 31.6638Z" fill="#ECC1C1"/>
<path d="M24.7034 32.2404C24.8675 32.4091 25.0175 32.545 25.0268 32.545C25.0409 32.545 24.9143 32.4091 24.7503 32.2404C24.5862 32.0716 24.4362 31.9357 24.4268 31.9357C24.4128 31.9357 24.5393 32.0716 24.7034 32.2404Z" fill="#ECC1C1"/>
<path d="M27.8063 27.8716L26.9062 28.7716V29.756V30.7404L27.8109 31.645L28.7109 32.545L29.1938 32.0622L29.6719 31.5841L28.7578 30.67L27.8438 29.756L28.7578 28.8419L29.6719 27.9279L29.1891 27.445L28.7109 26.9669L27.8063 27.8716Z" fill="#C1C1EC"/>
<path d="M27.7734 27.8669L26.8828 28.7716L27.7875 27.881C28.6219 27.056 28.7109 26.9669 28.6734 26.9669C28.6688 26.9669 28.2609 27.3747 27.7734 27.8669Z" fill="#ECC1EC"/>
<path d="M29.18 27.4357C29.4378 27.6935 29.6581 27.9044 29.6722 27.9044C29.6816 27.9044 29.4847 27.6935 29.2269 27.4357C28.9691 27.1779 28.7488 26.9669 28.7347 26.9669C28.7253 26.9669 28.9222 27.1779 29.18 27.4357Z" fill="#ECC1EC"/>
<path d="M28.7578 28.8513L27.8672 29.756L28.7719 28.8654C29.6063 28.0404 29.6953 27.9513 29.6578 27.9513C29.6531 27.9513 29.2453 28.3591 28.7578 28.8513Z" fill="#ECC1EC"/>
<path d="M28.7582 30.67C29.2457 31.1575 29.6582 31.5607 29.6722 31.5607C29.6863 31.5607 29.2926 31.1575 28.8051 30.67C28.3176 30.1779 27.9051 29.7794 27.891 29.7794C27.8769 29.7794 28.2707 30.1779 28.7582 30.67Z" fill="#ECC1EC"/>
<path d="M27.7738 31.6544C28.2613 32.1419 28.6738 32.545 28.6879 32.545C28.7019 32.545 28.3082 32.1419 27.8207 31.6544C27.3332 31.1622 26.9207 30.7638 26.9066 30.7638C26.8926 30.7638 27.2863 31.1622 27.7738 31.6544Z" fill="#ECC1EC"/>
<path d="M29.1797 32.0857L28.7109 32.5685L29.1938 32.0997C29.4563 31.8419 29.6719 31.6263 29.6719 31.6216C29.6719 31.5841 29.6156 31.6404 29.1797 32.0857Z" fill="#ECC1EC"/>
<path d="M24.5719 27.4497L24.0938 27.9279L24.9844 28.8185C25.4766 29.306 25.875 29.7279 25.875 29.756C25.875 29.7794 25.4719 30.2013 24.9844 30.6935L24.0938 31.5841L24.5719 32.0622L25.0547 32.545L25.9828 31.6216L26.9062 30.6982L26.8969 29.7372L26.8922 28.7716L25.9734 27.8716L25.0547 26.9669L24.5719 27.4497Z" fill="#ECECEC"/>
</g>
<defs>
<clipPath id="clip0_13_1284">
<rect width="24" height="24" fill="white" transform="translate(9 11.8732)"/>
</clipPath>
</defs>
</svg>
