<svg width="16" height="16" viewBox="0 0 16 16" fill="none" xmlns="http://www.w3.org/2000/svg">
<path d="M4.8 11.8293L8 8.62933L11.2 11.8293L11.8293 11.2L8.62933 8L11.8293 4.8L11.2 4.17067L8 7.37067L4.8 4.17067L4.17067 4.8L7.37067 8L4.17067 11.2L4.8 11.8293ZM8.00267 16C6.89689 16 5.85689 15.7902 4.88267 15.3707C3.90904 14.9505 3.06193 14.3804 2.34133 13.6604C1.62074 12.9404 1.05037 12.0942 0.630222 11.1218C0.210074 10.1493 0 9.10963 0 8.00267C0 6.8957 0.210074 5.8557 0.630222 4.88267C1.04978 3.90904 1.61896 3.06193 2.33778 2.34133C3.05659 1.62074 3.90311 1.05037 4.87733 0.630222C5.85156 0.210074 6.89156 0 7.99733 0C9.10311 0 10.1431 0.210074 11.1173 0.630222C12.091 1.04978 12.9381 1.61926 13.6587 2.33867C14.3793 3.05807 14.9496 3.90459 15.3698 4.87822C15.7899 5.85185 16 6.89156 16 7.99733C16 9.10311 15.7902 10.1431 15.3707 11.1173C14.9511 12.0916 14.381 12.9387 13.6604 13.6587C12.9399 14.3787 12.0936 14.949 11.1218 15.3698C10.1499 15.7905 9.11022 16.0006 8.00267 16ZM8 15.1111C9.98519 15.1111 11.6667 14.4222 13.0444 13.0444C14.4222 11.6667 15.1111 9.98519 15.1111 8C15.1111 6.01481 14.4222 4.33333 13.0444 2.95556C11.6667 1.57778 9.98519 0.888889 8 0.888889C6.01481 0.888889 4.33333 1.57778 2.95556 2.95556C1.57778 4.33333 0.888889 6.01481 0.888889 8C0.888889 9.98519 1.57778 11.6667 2.95556 13.0444C4.33333 14.4222 6.01481 15.1111 8 15.1111Z" fill="#7A808C"/>
</svg>
