<svg width="16" height="17" viewBox="0 0 16 17" fill="none" xmlns="http://www.w3.org/2000/svg">
<path d="M13.752 12.0344C14.1674 11.5386 14.3966 10.9133 14.4 10.2664C14.4 9.52382 14.105 8.81163 13.5799 8.28653C13.0548 7.76142 12.3426 7.46642 11.6 7.46642H11.376C12.0357 6.68242 12.3983 5.69109 12.4 4.66643C12.4019 3.92766 12.2177 3.20032 11.8645 2.55148C11.5112 1.90264 11.0003 1.35318 10.3788 0.95378C9.75732 0.554378 9.04527 0.31789 8.30832 0.266126C7.57137 0.214361 6.83325 0.348986 6.16203 0.657585C5.49081 0.966184 4.90809 1.43882 4.46762 2.03191C4.02715 2.62501 3.74311 3.31946 3.64168 4.05122C3.54025 4.78299 3.62471 5.52852 3.88726 6.21905C4.14982 6.90959 4.58202 7.5229 5.144 8.00242C3.63221 8.5802 2.33122 9.60293 1.41281 10.9355C0.494409 12.2682 0.00178775 13.848 0 15.4664C0 15.6786 0.0842854 15.8821 0.234315 16.0321C0.384344 16.1821 0.587827 16.2664 0.8 16.2664C1.01217 16.2664 1.21566 16.1821 1.36569 16.0321C1.51571 15.8821 1.6 15.6786 1.6 15.4664C1.6 13.769 2.27428 12.1412 3.47452 10.9409C4.67475 9.74071 6.30261 9.06642 8 9.06642H9.08C8.84566 9.54324 8.75566 10.0781 8.82103 10.6053C8.8864 11.1326 9.10431 11.6293 9.448 12.0344C8.76646 12.4156 8.19888 12.9717 7.80374 13.6452C7.40861 14.3188 7.2002 15.0855 7.2 15.8664C7.2 16.0786 7.28429 16.2821 7.43431 16.4321C7.58434 16.5821 7.78783 16.6664 8 16.6664C8.21217 16.6664 8.41566 16.5821 8.56569 16.4321C8.71571 16.2821 8.8 16.0786 8.8 15.8664C8.8 15.1238 9.095 14.4116 9.6201 13.8865C10.1452 13.3614 10.8574 13.0664 11.6 13.0664C12.3426 13.0664 13.0548 13.3614 13.5799 13.8865C14.105 14.4116 14.4 15.1238 14.4 15.8664C14.4 16.0786 14.4843 16.2821 14.6343 16.4321C14.7843 16.5821 14.9878 16.6664 15.2 16.6664C15.4122 16.6664 15.6157 16.5821 15.7657 16.4321C15.9157 16.2821 16 16.0786 16 15.8664C15.9998 15.0855 15.7914 14.3188 15.3963 13.6452C15.0011 12.9717 14.4335 12.4156 13.752 12.0344ZM8 7.46642C7.44621 7.46642 6.90486 7.30221 6.4444 6.99454C5.98395 6.68687 5.62506 6.24957 5.41314 5.73794C5.20121 5.22631 5.14576 4.66332 5.2538 4.12017C5.36184 3.57703 5.62851 3.07811 6.0201 2.68653C6.41169 2.29494 6.9106 2.02827 7.45375 1.92023C7.99689 1.81219 8.55988 1.86764 9.07151 2.07956C9.58315 2.29149 10.0204 2.65037 10.3281 3.11083C10.6358 3.57129 10.8 4.11264 10.8 4.66643C10.8 5.40903 10.505 6.12122 9.9799 6.64632C9.4548 7.17143 8.74261 7.46642 8 7.46642ZM11.6 11.4664C11.2817 11.4664 10.9765 11.34 10.7515 11.115C10.5264 10.8899 10.4 10.5847 10.4 10.2664C10.4021 9.94881 10.5292 9.6448 10.7538 9.42021C10.9784 9.19562 11.2824 9.06852 11.6 9.06642C11.9183 9.06642 12.2235 9.19285 12.4485 9.4179C12.6736 9.64294 12.8 9.94816 12.8 10.2664C12.8 10.5847 12.6736 10.8899 12.4485 11.115C12.2235 11.34 11.9183 11.4664 11.6 11.4664Z" fill="#464255"/>
</svg>
