<svg width="40" height="41" viewBox="0 0 40 41" fill="none" xmlns="http://www.w3.org/2000/svg">
<circle cx="20" cy="20.8732" r="20" fill="#00B074" fill-opacity="0.15"/>
<path d="M7.125 21.0279C7.125 25.1669 7.13906 26.3107 7.18594 26.3669C7.21406 26.4091 7.72969 26.7185 8.32031 27.0607C8.91563 27.4029 9.66094 27.8341 9.98438 28.0216C10.3078 28.2091 11.325 28.795 12.2484 29.3294C13.1672 29.8591 14.1891 30.4497 14.5219 30.6372C14.85 30.8294 15.3984 31.1482 15.7359 31.345C16.2516 31.6404 16.3922 31.7013 16.5609 31.7013C16.9547 31.7013 16.9219 32.1841 16.9219 26.3388C16.9219 21.2247 16.9219 21.1497 16.8328 21.2013C16.7812 21.2247 16.6781 21.2482 16.5984 21.2482C16.4953 21.2482 15.1734 20.5075 11.8969 18.6185C9.38906 17.1747 7.28906 15.9372 7.23281 15.8716L7.125 15.7591V21.0279Z" fill="#ECC140"/>
<path d="M26.0531 24.9185C25.9734 24.956 25.4859 25.556 24.75 26.5216C24.1031 27.37 23.5594 28.0732 23.5406 28.0779C23.5219 28.0825 23.2969 27.8341 23.0391 27.5247C22.2797 26.6154 22.2094 26.545 22.0406 26.545C21.8391 26.545 21.7031 26.6904 21.7031 26.8919C21.7031 27.0325 21.8063 27.1779 22.4813 27.9841C22.9125 28.495 23.2969 28.9404 23.3344 28.9685C23.3766 29.0013 23.475 29.0294 23.5594 29.0294C23.7469 29.0294 23.7797 28.9919 25.1016 27.2482C25.6406 26.5404 26.1844 25.8279 26.3063 25.6638C26.55 25.3404 26.5875 25.1669 26.4516 25.0075C26.3391 24.881 26.2078 24.8529 26.0531 24.9185Z" fill="#6B406B"/>
<path d="M12.1738 12.501C12.0238 12.5854 11.8831 12.6745 11.8597 12.6979C11.8363 12.7213 13.0456 13.5885 14.6628 14.7088C16.2238 15.7916 18.1503 17.1276 18.9472 17.6807L20.391 18.6791V20.451V22.2276L20.5128 22.3213C20.6769 22.4526 20.8363 22.4432 20.9769 22.3026L21.0941 22.1901V20.2729C21.0941 18.5104 21.0894 18.3463 21.0144 18.2573C20.916 18.1495 12.5441 12.3416 12.4831 12.3416C12.4644 12.3416 12.3238 12.4166 12.1738 12.501Z" fill="#EC6B6B"/>
<path d="M23.4848 22.2327C22.7488 22.3359 21.9051 22.6734 21.3051 23.0999C21.1457 23.2124 20.841 23.489 20.6254 23.7187C20.0394 24.3374 19.6973 24.9656 19.4676 25.8327C19.3691 26.2171 19.3504 26.3906 19.3504 26.9671C19.3457 27.5484 19.3644 27.7124 19.4676 28.1015C19.6035 28.6218 19.7676 29.0156 20.0254 29.4468C20.1238 29.6062 20.2035 29.7609 20.2035 29.7796C20.2035 29.8499 20.7473 30.4218 21.0894 30.7077C21.516 31.064 22.2144 31.4249 22.8051 31.589C23.3254 31.739 24.3191 31.7906 24.8769 31.7015C26.8785 31.3781 28.5051 29.7562 28.8285 27.7546C28.9129 27.2296 28.866 26.2031 28.7348 25.7249C28.416 24.5531 27.6191 23.4796 26.616 22.8796C26.2598 22.6687 25.5473 22.4015 25.0598 22.2984C24.6426 22.2093 23.8738 22.1812 23.4848 22.2327ZM26.4613 24.9749C26.6957 25.2046 26.6816 25.2281 25.266 27.089C24.5441 28.0406 23.8879 28.8749 23.8129 28.9452C23.6629 29.0859 23.466 29.114 23.3394 29.0156C23.2973 28.9827 22.9035 28.5327 22.4629 28.0077C21.8301 27.2624 21.6566 27.0234 21.6566 26.9202C21.6566 26.7234 21.6988 26.6437 21.8535 26.564C22.116 26.4281 22.2051 26.4937 22.8988 27.3046C23.2504 27.7171 23.5551 28.0359 23.5785 28.0171C23.5973 27.9937 24.1223 27.2999 24.7504 26.4749C25.3738 25.6499 25.9176 24.9468 25.9598 24.914C26.0863 24.8156 26.3348 24.8437 26.4613 24.9749Z" fill="#EC6B6B"/>
<path d="M7.16765 15.8018C7.19109 15.8487 7.25202 15.919 7.29421 15.9565C7.34577 15.9987 7.3364 15.9659 7.26609 15.8674C7.14421 15.7034 7.09734 15.6706 7.16765 15.8018Z" fill="#ECC16B"/>
<path d="M23.6255 17.2737C22.2989 18.0378 21.1974 18.6659 21.1786 18.6659C21.1599 18.6706 21.1411 18.6003 21.1317 18.5159C21.1224 18.4362 21.1177 19.2237 21.1177 20.2737V22.1768L21.0052 22.2987C20.8224 22.4956 20.5317 22.4581 20.4145 22.2284C20.3583 22.1206 20.3442 21.8253 20.3442 20.6346C20.3442 19.4534 20.3349 19.1815 20.2833 19.2003C20.2505 19.2143 19.4864 19.6456 18.5911 20.1659C17.6911 20.6862 16.9411 21.1081 16.9177 21.1081C16.8989 21.1081 16.8661 21.1315 16.8474 21.1643C16.8286 21.1971 16.8333 21.2018 16.8661 21.1831C16.9083 21.1596 16.9224 22.4299 16.9224 26.3487C16.9224 31.2378 16.9177 31.5518 16.8427 31.6221C16.7958 31.6596 16.6833 31.7018 16.5942 31.7159C16.4442 31.7346 16.4442 31.7346 16.6177 31.7299C16.7724 31.7253 17.1099 31.5471 18.502 30.7409L20.1989 29.7612L20.1052 29.6159C19.3036 28.4018 19.0974 26.8081 19.5661 25.4346C20.4192 22.9315 23.1333 21.6003 25.6599 22.4487C25.8614 22.5143 26.0349 22.5612 26.0442 22.5471C26.0536 22.5378 26.0583 21.0331 26.0536 19.2049L26.0395 15.8815L23.6255 17.2737Z" fill="#ECC16B"/>
<path d="M15.1174 10.7522C14.3956 11.1647 13.5049 11.6803 13.1393 11.8866C12.769 12.0928 12.4878 12.2756 12.5065 12.2897C12.5299 12.3038 14.4565 13.6444 16.7909 15.2616C19.5471 17.1741 21.0518 18.2475 21.0893 18.3225C21.1174 18.3881 21.1409 18.4913 21.1409 18.5522C21.1409 18.6178 21.1549 18.6694 21.1784 18.6647C21.1971 18.6647 22.2987 18.0366 23.6253 17.2725C26.2924 15.735 26.1659 15.8334 25.9831 15.4584C25.8893 15.2569 26.4518 15.5897 20.3674 12.1209C18.3565 10.9725 16.6503 10.0256 16.5706 10.0163C16.4534 9.99751 16.2003 10.1241 15.1174 10.7522Z" fill="#ECEC6B"/>
<path d="M11.5081 12.8241C11.3206 12.9319 10.2424 13.5553 9.11744 14.2069C8.78463 14.3991 8.23619 14.7178 7.89869 14.91C7.19088 15.3131 7.13931 15.3553 7.10181 15.5288C7.07838 15.6319 7.10181 15.6928 7.22838 15.8241C7.32681 15.9272 8.98619 16.9116 11.8784 18.5803C14.3534 20.01 16.4299 21.196 16.5003 21.2194C16.669 21.271 16.7018 21.2522 18.6706 20.1225L20.3393 19.1616L20.344 18.9225V18.6835L19.444 18.06C17.0581 16.4053 13.2565 13.771 12.5628 13.2881C12.1362 12.9928 11.7706 12.7444 11.7424 12.735C11.719 12.7256 11.6112 12.7678 11.5081 12.8241Z" fill="#ECEC6B"/>
</svg>
