<svg width="25" height="24" viewBox="0 0 25 24" fill="none" xmlns="http://www.w3.org/2000/svg">
<path d="M7.044 5.00016C6.96388 4.91842 6.86845 4.85327 6.76314 4.80842C6.65784 4.76358 6.54473 4.73993 6.43028 4.73881C6.31583 4.7377 6.20229 4.75914 6.09613 4.80193C5.98997 4.84472 5.89329 4.908 5.8116 4.98817C4.8878 5.90706 4.15497 6.99967 3.65533 8.20305C3.15569 9.40643 2.89912 10.6968 2.9004 11.9998C2.89904 13.3528 3.17571 14.6916 3.71324 15.9333C4.25077 17.1749 5.03769 18.2929 6.0252 19.2178C6.19142 19.3714 6.41099 19.4542 6.63728 19.4486C6.86358 19.443 7.07878 19.3495 7.2372 19.1878C7.61639 18.8086 7.56959 18.205 7.20479 17.8558C6.41219 17.1004 5.78146 16.1918 5.35094 15.1851C4.92041 14.1784 4.69908 13.0947 4.7004 11.9998C4.7004 9.78456 5.5896 7.77577 7.03199 6.31417C7.37999 5.96017 7.416 5.37216 7.044 5.00016ZM9.1572 7.11576C8.99916 6.95315 8.7831 6.85982 8.55636 6.85622C8.32963 6.85262 8.11072 6.93905 7.9476 7.09657C7.29817 7.73719 6.78271 8.50063 6.43124 9.34243C6.07978 10.1842 5.89932 11.0875 5.9004 11.9998C5.9004 14.0302 6.7764 15.8554 8.172 17.1178C8.33684 17.2631 8.5513 17.3395 8.77092 17.331C8.99054 17.3225 9.19846 17.2298 9.3516 17.0722C9.7452 16.6786 9.672 16.0594 9.3024 15.7114C8.79594 15.235 8.39249 14.6599 8.11695 14.0215C7.84142 13.3831 7.69965 12.6951 7.7004 11.9998C7.7004 10.6198 8.2488 9.36696 9.1404 8.44776C9.4836 8.09496 9.54 7.49736 9.1572 7.11576ZM15.8436 7.11456C16.0016 6.95195 16.2177 6.85862 16.4444 6.85502C16.6712 6.85142 16.8901 6.93785 17.0532 7.09537C17.7028 7.73613 18.2183 8.49977 18.5698 9.34178C18.9212 10.1838 19.1016 11.0873 19.1004 11.9998C19.1004 14.0302 18.2244 15.8554 16.8288 17.1178C16.6639 17.2631 16.4495 17.3395 16.2299 17.331C16.0103 17.3225 15.8023 17.2298 15.6492 17.0722C15.2556 16.6786 15.3288 16.0594 15.6984 15.7114C16.2049 15.235 16.6083 14.6599 16.8838 14.0215C17.1594 13.3831 17.3011 12.6951 17.3004 11.9998C17.3004 10.6198 16.752 9.36696 15.8604 8.44776C15.5172 8.09496 15.4608 7.49617 15.8436 7.11456ZM17.9568 5.00016C18.0369 4.91842 18.1323 4.85327 18.2376 4.80842C18.343 4.76358 18.4561 4.73993 18.5705 4.73881C18.685 4.7377 18.7985 4.75914 18.9047 4.80193C19.0108 4.84472 19.1075 4.908 19.1892 4.98817C20.113 5.90706 20.8458 6.99967 21.3455 8.20305C21.8451 9.40643 22.1017 10.6968 22.1004 11.9998C22.1017 13.3528 21.8251 14.6916 21.2876 15.9333C20.75 17.1749 19.9631 18.2929 18.9756 19.2178C18.8094 19.3714 18.5898 19.4542 18.3635 19.4486C18.1372 19.443 17.922 19.3495 17.7636 19.1878C17.3844 18.8086 17.4312 18.205 17.7972 17.8558C18.5896 17.1003 19.2201 16.1916 19.6504 15.1849C20.0807 14.1782 20.3019 13.0946 20.3004 11.9998C20.3004 9.78456 19.4112 7.77577 17.9688 6.31417C17.6208 5.96017 17.5848 5.37216 17.9568 5.00016ZM12.5004 10.1998C12.023 10.1998 11.5652 10.3894 11.2276 10.727C10.89 11.0645 10.7004 11.5224 10.7004 11.9998C10.7004 12.4772 10.89 12.935 11.2276 13.2726C11.5652 13.6101 12.023 13.7998 12.5004 13.7998C12.9778 13.7998 13.4356 13.6101 13.7732 13.2726C14.1108 12.935 14.3004 12.4772 14.3004 11.9998C14.3004 11.5224 14.1108 11.0645 13.7732 10.727C13.4356 10.3894 12.9778 10.1998 12.5004 10.1998Z" fill="#007B29"/>
</svg>
