<svg width="40" height="41" viewBox="0 0 40 41" fill="none" xmlns="http://www.w3.org/2000/svg">
<circle cx="20" cy="20.8732" r="20" fill="#00B074" fill-opacity="0.15"/>
<g clip-path="url(#clip0_13_1230)">
<path d="M14.3891 29.8029C14.3281 29.8638 14.2812 29.9482 14.2812 29.9904C14.2812 30.0325 14.2625 30.0513 14.2344 30.0372C14.2109 30.0232 14.1875 30.0232 14.1828 30.0466C14.1594 30.2622 14.1453 30.3091 14.0937 30.3419C14.0516 30.3654 14.0328 30.5013 14.0328 30.7685C14.0281 31.2279 14.0516 31.42 14.1031 31.3919C14.1219 31.3779 14.1406 31.4294 14.1406 31.5044C14.1406 31.5841 14.1875 31.6919 14.2531 31.7622C14.3141 31.8279 14.3562 31.8935 14.3422 31.9075C14.3281 31.9169 14.3797 31.9685 14.45 32.0154C14.5203 32.0622 14.6328 32.1466 14.6891 32.2075C14.7547 32.2732 14.8297 32.306 14.8719 32.2919C14.9141 32.2779 14.9281 32.2872 14.9141 32.3107C14.9 32.3388 14.9141 32.3622 14.9469 32.3669C14.9797 32.3669 15.0312 32.3763 15.0547 32.3763C15.0828 32.381 15.125 32.3997 15.1531 32.4138C15.2328 32.4654 15.7812 32.5029 15.8469 32.4654C15.875 32.4466 15.9594 32.4279 16.0344 32.4232C16.1094 32.4185 16.1797 32.395 16.1984 32.3716C16.2125 32.3435 16.2828 32.3107 16.3484 32.2966C16.4891 32.2591 17.0234 31.7435 16.9719 31.6872C16.9625 31.6779 16.9812 31.6404 17.0234 31.6075C17.0609 31.5747 17.0937 31.5138 17.0937 31.4669C17.0937 31.42 17.1219 31.3122 17.1594 31.2232C17.2437 31.0263 17.1969 30.3794 17.0937 30.2763C17.0656 30.2482 17.0469 30.1919 17.0469 30.145C17.0469 30.1029 17.0094 30.0419 16.9672 30.0185C16.9203 29.9904 16.8969 29.9669 16.9156 29.9669C16.9344 29.9669 16.8875 29.9013 16.8125 29.8263L16.6766 29.6857L15.5844 29.6904C14.4922 29.6904 14.4922 29.6904 14.3891 29.8029Z" fill="#151540"/>
<path d="M21.5654 29.8545C21.5232 29.9436 21.4716 30.0139 21.4482 30.0139C21.4247 30.0139 21.3919 30.042 21.3826 30.0701C21.3732 30.103 21.3357 30.192 21.3076 30.2717C21.2747 30.3467 21.256 30.4733 21.2607 30.5483C21.2701 30.6326 21.256 30.6701 21.2232 30.6514C21.1482 30.6045 21.1576 30.9936 21.2372 31.2233C21.2747 31.3264 21.2935 31.4248 21.2794 31.4389C21.2607 31.453 21.2747 31.467 21.3076 31.467C21.3404 31.467 21.3497 31.4858 21.3357 31.5139C21.3216 31.542 21.331 31.5608 21.3544 31.5608C21.3826 31.5608 21.406 31.5936 21.406 31.6311C21.406 31.7342 21.781 32.1701 21.8701 32.1701C21.8935 32.1701 21.9216 32.1842 21.931 32.203C21.9591 32.2733 22.2732 32.4045 22.4232 32.4186C22.5076 32.4233 22.5779 32.442 22.5779 32.4561C22.5779 32.4889 22.9622 32.4608 23.2107 32.4139C23.4779 32.3576 23.7029 32.2545 23.7029 32.1842C23.7029 32.1514 23.7451 32.1233 23.7919 32.1233C23.8435 32.1233 23.9232 32.0623 23.9701 31.9826C24.0122 31.903 24.0638 31.842 24.0826 31.842C24.1013 31.842 24.1294 31.7905 24.1435 31.7248C24.1622 31.6592 24.1951 31.6076 24.2232 31.6076C24.2513 31.6076 24.256 31.5889 24.2419 31.5608C24.2279 31.5373 24.2372 31.5139 24.2607 31.5139C24.2888 31.5139 24.3076 31.4998 24.3029 31.4811C24.2982 31.4576 24.3216 31.3592 24.3497 31.2561C24.406 31.0545 24.3872 30.4358 24.3263 30.3936C24.3029 30.3795 24.2841 30.3326 24.2794 30.2951C24.2701 30.1592 24.2091 30.0139 24.1669 30.042C24.1435 30.0561 24.1247 30.028 24.1247 29.9764C24.1247 29.9295 24.0732 29.8451 24.0169 29.7842C23.9091 29.6858 23.8763 29.6811 22.7747 29.6858L21.6404 29.6905L21.5654 29.8545Z" fill="#151540"/>
<path d="M25.3906 9.27629C22.925 9.59036 21.0078 11.3388 20.4875 13.7482C20.375 14.2779 20.3703 15.4872 20.4875 15.9982C20.5766 16.3966 20.7031 16.8091 20.7453 16.8419C20.7641 16.856 20.8672 17.0529 20.975 17.2779C21.8891 19.2044 23.8672 20.4513 26 20.4513C26.5484 20.4513 27.5656 20.2919 27.95 20.1466C29.7641 19.4622 31.0766 17.9435 31.4984 16.045C31.6297 15.445 31.6391 14.3294 31.5125 13.7482C31.0438 11.5638 29.3797 9.87161 27.2188 9.38411C26.8297 9.29504 25.7422 9.23411 25.3906 9.27629ZM28.6297 12.1216C28.7328 12.2013 28.8125 12.3654 28.8125 12.5013C28.8125 12.6419 25.6016 17.4888 25.4328 17.6107C25.3719 17.6529 25.2594 17.6857 25.1844 17.6857C25.0625 17.6857 24.9078 17.5497 24.1156 16.7575C23.3094 15.956 23.1875 15.8107 23.1875 15.6888C23.1875 15.3935 23.5156 15.1732 23.7594 15.295C23.8203 15.3279 24.1531 15.6372 24.5047 15.9841L25.1375 16.6122L26.6094 14.3997C27.4203 13.1857 28.1281 12.1638 28.1797 12.1263C28.2922 12.0466 28.5266 12.0419 28.6297 12.1216Z" fill="#FF6966"/>
<path d="M8.20622 14.4888C8.1781 14.5075 8.11716 14.5872 8.07029 14.6669C7.96247 14.8544 8.00466 15.1544 8.14529 15.1872C8.19216 15.2013 8.23435 15.2294 8.23435 15.2482C8.23435 15.2669 8.78747 15.2904 9.46247 15.2904C10.1422 15.295 10.714 15.3185 10.7328 15.3372C10.7515 15.356 10.775 15.445 10.789 15.5341C10.7984 15.6232 10.8172 15.745 10.8312 15.8107C10.8406 15.8763 10.864 16.0216 10.8828 16.1388C10.9203 16.3825 10.9437 16.4904 10.9531 16.4904C10.9625 16.4904 10.9812 16.6263 11.0187 16.9263C11.0328 17.0341 11.0656 17.1654 11.089 17.2122C11.1172 17.2591 11.1265 17.306 11.1172 17.32C11.1031 17.3341 11.1172 17.456 11.1453 17.5966C11.1734 17.7372 11.2015 17.8919 11.2109 17.9435C11.2203 17.995 11.2484 18.1638 11.2812 18.3185C11.3093 18.4732 11.3422 18.6513 11.3515 18.7169C11.3609 18.7825 11.3843 18.9091 11.3984 18.9982C11.4734 19.4013 11.5672 19.9685 11.5672 20.0388C11.5672 20.0857 11.5812 20.1232 11.6 20.1232C11.6187 20.1232 11.6375 20.17 11.6375 20.2263C11.6422 20.2872 11.6562 20.4185 11.675 20.5216C11.7312 20.8404 11.7547 21.0325 11.7547 21.1169C11.7547 21.1638 11.7781 21.2013 11.8015 21.2013C11.8297 21.2013 11.839 21.2154 11.8297 21.2341C11.8156 21.2575 11.825 21.3888 11.8531 21.5294C11.8953 21.7919 11.9 21.8247 11.9609 22.1857C11.9984 22.4341 12.0218 22.5372 12.0312 22.5372C12.0359 22.5372 12.0453 22.5888 12.0547 22.6544C12.1203 23.081 12.1578 23.2872 12.1718 23.2872C12.1765 23.2872 12.1859 23.3622 12.1953 23.4513C12.2093 23.5404 12.2328 23.6904 12.2468 23.7794C12.2656 23.8685 12.2843 23.9857 12.2937 24.0372C12.3031 24.0888 12.3406 24.2997 12.3828 24.506C12.425 24.7122 12.4578 24.9372 12.4625 25.0075C12.4672 25.0825 12.4859 25.1388 12.5 25.1388C12.5187 25.1388 12.5281 25.1904 12.5234 25.256C12.514 25.3216 12.5234 25.3732 12.5422 25.3732C12.5609 25.3732 12.575 25.42 12.5703 25.4763C12.5656 25.5372 12.589 25.6966 12.6172 25.8279C12.65 25.9638 12.664 26.0763 12.6453 26.0763C12.6312 26.0763 12.6453 26.095 12.6781 26.1138C12.725 26.1466 12.725 26.1841 12.6875 26.2919C12.6593 26.3669 12.6218 26.4372 12.6031 26.4513C12.5468 26.4935 12.2656 26.92 12.2515 26.981C12.2468 27.0138 12.2281 27.0466 12.214 27.0607C12.1718 27.0982 11.7687 27.6888 11.75 27.7404C11.7406 27.7638 11.7078 27.8575 11.6703 27.9419C11.5484 28.2372 11.5859 28.7154 11.764 29.02C11.9375 29.3247 12.2515 29.5638 12.5328 29.6107C12.7859 29.6575 25.7656 29.6763 25.7656 29.6341C25.7656 29.6107 25.789 29.5966 25.8218 29.606C25.9437 29.6294 26.0609 29.1841 25.9625 29.0529C25.9437 29.0247 25.8687 28.9638 25.7937 28.9169C25.6625 28.8325 25.4093 28.8325 19.2312 28.8466C15.6968 28.856 12.7765 28.856 12.739 28.8419C12.7062 28.8279 12.6218 28.7716 12.5562 28.7107C12.364 28.5372 12.3875 28.2747 12.6312 27.9185C12.739 27.7591 12.8281 27.6044 12.8281 27.581C12.8281 27.5529 12.8515 27.5294 12.8797 27.5294C12.9031 27.5294 12.9125 27.506 12.8984 27.4825C12.8843 27.4544 12.889 27.4357 12.9172 27.4357C12.9593 27.4357 13.1797 27.1169 13.1797 27.0466C13.1797 27.0279 13.2125 26.9904 13.25 26.9669C13.2875 26.9435 13.3015 26.92 13.2734 26.92C13.25 26.92 13.264 26.8966 13.3109 26.8685C13.3531 26.845 13.3906 26.7982 13.3906 26.77C13.3906 26.7419 13.4234 26.681 13.4656 26.6341C13.55 26.5357 13.5922 26.8169 13.0906 24.0138C12.9265 23.0716 12.6172 21.3419 12.4062 20.17C12.2 18.9982 11.9843 17.8029 11.9328 17.5122C11.8812 17.2263 11.8343 16.8888 11.8203 16.7622C11.8109 16.6404 11.7922 16.4857 11.7781 16.42C11.75 16.2888 11.6656 15.8107 11.6328 15.5997C11.6187 15.5247 11.5953 15.4216 11.5812 15.3747C11.5672 15.3279 11.5437 15.2247 11.5343 15.1404C11.525 15.056 11.5062 14.9482 11.4968 14.8966C11.4828 14.845 11.4734 14.7747 11.4734 14.7419C11.4687 14.7091 11.4125 14.6294 11.3468 14.5685L11.225 14.456H9.73904C8.92341 14.456 8.23435 14.47 8.20622 14.4888Z" fill="#C1C1C1"/>
<path d="M14.2484 19.3263C14.0327 19.4154 13.9718 19.7716 14.1499 19.9357C14.2484 20.0294 14.2999 20.0294 16.9999 20.0294H19.7515L19.8499 19.9216C19.9765 19.7857 19.9812 19.5607 19.864 19.4154L19.7749 19.3029L17.0609 19.2935C15.5562 19.2888 14.3046 19.3029 14.2484 19.3263Z" fill="#C1C1C1"/>
<path d="M14.5386 22.6307C14.3839 22.7854 14.3886 22.9589 14.5573 23.1276L14.6933 23.2636H19.3667C24.3261 23.2636 24.2464 23.2682 24.3308 23.0526C24.3917 22.8932 24.3589 22.7151 24.2511 22.6167L24.1433 22.5136H19.3948H14.6511L14.5386 22.6307Z" fill="#C1C1C1"/>
<path d="M24.102 16.7481C24.5379 17.1841 24.9082 17.545 24.9223 17.545C24.9363 17.545 24.5848 17.1841 24.1488 16.7481C23.7129 16.3075 23.3426 15.9512 23.3285 15.9512C23.3145 15.9512 23.666 16.3075 24.102 16.7481Z" fill="#228F45"/>
<path d="M11.8438 16.8607C11.8438 16.8747 12.0875 18.2482 12.3875 19.9216C12.6828 21.5904 13.0625 23.7138 13.2266 24.6325C13.3906 25.5513 13.5359 26.3294 13.5547 26.3575C13.5734 26.3857 13.6203 26.3997 13.6625 26.3857C13.7094 26.3763 14.0984 26.3529 14.5344 26.3341C14.9703 26.3154 15.3688 26.2966 15.425 26.2872C15.4813 26.2779 15.8516 26.2591 16.25 26.2404C16.6484 26.2263 17.0844 26.2029 17.2109 26.1935C17.3422 26.1841 17.7078 26.1607 18.0313 26.1466C18.3547 26.1325 19.0063 26.0997 19.4844 26.0763C19.9625 26.0529 20.5719 26.02 20.8438 26.006C21.4813 25.9732 22.1234 25.9404 22.625 25.9122C22.8453 25.8982 23.4547 25.8654 23.9844 25.8419C25.1938 25.781 25.3484 25.7482 25.5969 25.495C25.7984 25.2935 25.7703 25.3779 26.2672 23.7325C26.4266 23.2029 26.5063 22.9404 26.6328 22.5138C26.6703 22.3966 26.8156 21.9138 26.9656 21.4357C27.3219 20.2685 27.3125 20.3341 27.1297 20.3716C25.5359 20.6904 23.9188 20.32 22.6156 19.3404C21.8844 18.7872 21.3172 18.0888 20.9234 17.2544L20.7266 16.8419H16.2875C13.8406 16.8419 11.8438 16.8513 11.8438 16.8607ZM19.8172 19.3404C20.0328 19.5044 20.0516 19.7529 19.8641 19.9404L19.7281 20.0763H17H14.2719L14.1359 19.9404C13.9484 19.7529 13.9672 19.5044 14.1828 19.3404C14.2906 19.256 19.7094 19.256 19.8172 19.3404ZM24.2703 22.6029C24.4156 22.7482 24.4391 22.8794 24.35 23.0435C24.2328 23.2685 24.425 23.2591 19.4094 23.2638C14.6844 23.2638 14.6703 23.2638 14.5438 23.1654C14.3422 23.006 14.3891 22.6075 14.6234 22.5138C14.6797 22.4904 16.8359 22.4716 19.4281 22.4716L24.1344 22.4669L24.2703 22.6029Z" fill="#00B074"/>
<path d="M28.1234 12.2107C28.0719 12.2716 27.3828 13.2982 26.5906 14.4935L25.1469 16.6685L24.4578 15.9794C23.8531 15.3841 23.7453 15.295 23.6141 15.295C23.4125 15.295 23.2344 15.4732 23.2344 15.6794C23.2344 15.82 23.3281 15.9279 24.1391 16.7388C24.9734 17.5685 25.0531 17.6388 25.2078 17.6388C25.3203 17.6388 25.4047 17.606 25.4703 17.531C25.5219 17.4747 26.2859 16.345 27.1672 15.0279C28.8875 12.4404 28.8922 12.431 28.6578 12.2107C28.5078 12.07 28.25 12.0747 28.1234 12.2107Z" fill="#ECECEC"/>
</g>
<defs>
<clipPath id="clip0_13_1230">
<rect width="24" height="24" fill="white" transform="translate(8 8.87317)"/>
</clipPath>
</defs>
</svg>
