<svg width="25" height="24" viewBox="0 0 25 24" fill="none" xmlns="http://www.w3.org/2000/svg">
<path d="M7.69997 7.20001V5.40001C7.69997 4.98721 7.77797 4.59961 7.93397 4.23721C8.08997 3.86921 8.30557 3.55041 8.58077 3.28081C8.84957 3.00561 9.16837 2.79001 9.53717 2.63401C9.89957 2.47801 10.2872 2.40001 10.7 2.40001C11.0368 2.40001 11.3588 2.45321 11.666 2.55961C11.9732 2.66681 12.2544 2.81681 12.5096 3.00961C13.0225 2.61395 13.6522 2.39956 14.3 2.40001C14.8914 2.39673 15.4704 2.56975 15.963 2.89697C16.4557 3.2242 16.8397 3.69079 17.066 4.23721C17.222 4.59961 17.3 4.98721 17.3 5.40001V7.20001H18.5C18.8182 7.20001 19.1235 7.32644 19.3485 7.55148C19.5735 7.77653 19.7 8.08175 19.7 8.40001V18C19.7 18.5 19.6064 18.9688 19.4192 19.4064C19.232 19.8376 18.9756 20.2188 18.65 20.55C18.434 20.7612 18.1964 20.9436 17.9372 21.0972L17.2292 20.79L16.6352 20.5248L16.3808 20.3844L16.1144 20.1864L15.8252 19.932L15.5036 19.5888C15.1104 19.1536 14.8949 18.5865 14.9 18V7.20001H16.1V5.40001C16.1 5.15041 16.0532 4.91601 15.9596 4.69681C15.824 4.36923 15.5935 4.08971 15.2977 3.89425C15.002 3.69878 14.6545 3.5963 14.3 3.60001C13.932 3.60001 13.6008 3.70321 13.3064 3.90961C13.5651 4.36365 13.7008 4.87741 13.7 5.40001V18C13.6949 18.8869 14.0229 19.7434 14.6192 20.4L14.99 20.796L15.3596 21.12L15.7304 21.396L16.1 21.6H8.89997C8.39997 21.6 7.93437 21.5064 7.50317 21.3192C7.07599 21.1389 6.68767 20.8777 6.35957 20.55C6.03117 20.2208 5.76741 19.8329 5.58197 19.4064C5.39132 18.9623 5.29528 18.4833 5.29997 18V8.40001C5.29997 8.08175 5.4264 7.77653 5.65144 7.55148C5.87648 7.32644 6.18171 7.20001 6.49997 7.20001H7.69997ZM8.89997 7.20001H12.5V5.40001C12.5 5.15041 12.4532 4.91601 12.3596 4.69681C12.224 4.36923 11.9935 4.08971 11.6977 3.89425C11.402 3.69878 11.0545 3.5963 10.7 3.60001C10.4504 3.60001 10.216 3.64681 9.99677 3.74041C9.66919 3.87597 9.38967 4.10647 9.19421 4.40224C8.99874 4.69801 8.89626 5.04551 8.89997 5.40001V7.20001Z" fill="#AEA9B1"/>
</svg>
