<svg width="40" height="41" viewBox="0 0 40 41" fill="none" xmlns="http://www.w3.org/2000/svg">
<circle cx="20" cy="20.8732" r="20" fill="#00B074" fill-opacity="0.15"/>
<g clip-path="url(#clip0_13_1351)">
<path d="M19.7746 12.3931C19.7137 12.4165 19.3855 12.5947 19.048 12.7962C18.7058 12.9931 18.4012 13.1525 18.373 13.1525C18.3402 13.1525 18.3121 13.1665 18.3121 13.1853C18.3121 13.2228 17.2668 13.8368 17.173 13.8556C17.1449 13.8603 17.0933 13.8931 17.0652 13.9306C17.0183 13.9868 17.2527 14.1415 18.4246 14.8165C19.198 15.2618 19.873 15.6509 19.9199 15.6743C19.9949 15.7165 19.9996 15.6228 19.9996 14.029C19.9996 12.2337 20.009 12.2947 19.7746 12.3931Z" fill="#ECEC15"/>
<path d="M15.4531 14.8685C15.4156 14.8966 15.3687 14.9013 15.35 14.8919C15.3312 14.8779 15.3125 14.8872 15.3125 14.906C15.3125 14.9622 15.05 15.1122 15.0125 15.0747C14.9984 15.0607 14.9844 15.0654 14.9844 15.0935C14.9844 15.145 13.9156 15.7779 13.8265 15.7779C13.7937 15.7779 13.7656 15.7966 13.7656 15.8154C13.7656 15.8529 12.8187 16.4013 12.7765 16.3872C12.7625 16.3825 12.725 16.4294 12.6969 16.4904C12.65 16.5888 12.6594 16.6169 12.7484 16.6732C12.8047 16.7107 14.2344 17.5357 15.9219 18.506C17.6094 19.481 19.0812 20.3294 19.1844 20.3904L19.3812 20.5029L19.6906 19.9638L20 19.4247V18.4029V17.381L17.8344 16.1294C16.639 15.4404 15.6312 14.8685 15.5937 14.8544C15.5562 14.8404 15.4906 14.845 15.4531 14.8685Z" fill="#ECEC15"/>
<path d="M25.8969 17.4888L24.4531 18.3185V19.6591C24.4531 20.9716 24.4531 21.0044 24.3453 21.1544C24.0406 21.6091 23.4078 21.6091 23.1266 21.1544C23.0328 21.0044 23.0234 20.92 23.0094 20.0857C23 19.5935 22.9859 19.1857 22.9719 19.1857C22.9625 19.1857 22.5641 19.4107 22.0906 19.6825L21.2281 20.1841L20.6141 21.2482L20 22.3122V25.8607V29.4044L20.1312 29.3763C20.2016 29.3575 20.7547 29.0575 21.3594 28.7107C21.9641 28.3638 22.4891 28.0779 22.5172 28.0779C22.55 28.0779 22.5687 28.0638 22.5547 28.0544C22.5266 28.0263 23.6562 27.3747 23.7406 27.3747C23.7687 27.3747 23.7875 27.3607 23.7734 27.3513C23.7453 27.3232 24.875 26.6716 24.9594 26.6716C24.9875 26.6716 25.0062 26.6622 24.9922 26.6482C24.9641 26.62 26.9891 25.4529 27.0641 25.4529C27.0969 25.4529 27.1109 25.4341 27.0969 25.4107C27.0734 25.3732 27.1484 25.3544 27.2422 25.3732C27.2656 25.3779 27.275 25.3638 27.2516 25.345C27.2328 25.3263 27.2656 25.2607 27.3219 25.195L27.4297 25.0825L27.4437 20.9763C27.4484 18.7169 27.4437 16.8185 27.4297 16.7575C27.4156 16.7013 27.3875 16.6544 27.3687 16.6544C27.35 16.6544 26.6891 17.0294 25.8969 17.4888Z" fill="#EC6B40"/>
<path d="M27.2097 16.6826C27.0268 16.7764 27.0456 16.8139 27.2237 16.7201C27.3456 16.6592 27.3784 16.6545 27.4112 16.7107C27.4347 16.7436 27.4487 18.642 27.4393 20.9295C27.4347 23.2123 27.444 25.0592 27.4628 25.0311C27.519 24.942 27.5097 16.8045 27.4534 16.6967C27.3925 16.5889 27.3784 16.5889 27.2097 16.6826Z" fill="#EC9640"/>
<path d="M26.7641 16.941C26.6281 17.0207 26.5156 17.0957 26.5156 17.1098C26.5156 17.1332 26.9328 16.9035 27.0078 16.8379C27.0828 16.7629 27.0125 16.7957 26.7641 16.941Z" fill="#EC9640"/>
<path d="M26.3186 17.1985C26.1404 17.2922 26.1498 17.3297 26.3279 17.2407C26.4076 17.1985 26.4686 17.1563 26.4686 17.1469C26.4686 17.1141 26.4639 17.1188 26.3186 17.1985Z" fill="#EC9640"/>
<path d="M25.7328 17.5356C25.5218 17.6574 25.3343 17.7746 25.3109 17.7981C25.264 17.8496 25.2687 17.8496 25.7562 17.5684C25.9672 17.4465 26.1406 17.3387 26.1406 17.3293C26.1406 17.3012 26.1359 17.3012 25.7328 17.5356Z" fill="#EC9640"/>
<path d="M25.0998 17.9016C24.9217 17.9954 24.9311 18.0329 25.1092 17.9438C25.1889 17.9016 25.2498 17.8594 25.2498 17.85C25.2498 17.8172 25.2451 17.8219 25.0998 17.9016Z" fill="#EC9640"/>
<path d="M24.6642 18.1544C24.5377 18.2294 24.4486 18.295 24.4673 18.295C24.5142 18.295 24.922 18.0607 24.922 18.0325C24.922 18.0044 24.9127 18.0091 24.6642 18.1544Z" fill="#EC9640"/>
<path d="M22.4047 19.4574C22.1937 19.5793 22.0062 19.6965 21.9828 19.7199C21.9359 19.7715 21.9406 19.7715 22.4281 19.4902C22.639 19.3684 22.8125 19.2606 22.8125 19.2512C22.8125 19.2231 22.8078 19.2231 22.4047 19.4574Z" fill="#EC9640"/>
<path d="M21.7717 19.8235C21.5936 19.9172 21.6029 19.9547 21.7811 19.8657C21.8608 19.8235 21.9217 19.7813 21.9217 19.7719C21.9217 19.7391 21.917 19.7438 21.7717 19.8235Z" fill="#EC9640"/>
<path d="M21.4859 19.9879C21.4438 20.0113 21.3828 20.0207 21.35 20.002C21.3172 19.9832 21.3125 19.9879 21.3313 20.0207C21.35 20.0535 21.3406 20.077 21.3172 20.077C21.2891 20.077 21.2656 20.0957 21.2656 20.1238C21.2656 20.1473 21.3406 20.1238 21.4297 20.0723C21.5188 20.016 21.5938 19.9645 21.5938 19.9551C21.5938 19.927 21.5797 19.9316 21.4859 19.9879Z" fill="#EC9640"/>
<path d="M27.242 25.2704C27.167 25.3407 25.5686 26.2829 23.6936 27.3657C21.8186 28.4438 20.2905 29.3391 20.2998 29.3438C20.3139 29.3625 26.417 25.8563 27.0123 25.486C27.1998 25.3735 27.3592 25.2469 27.378 25.2094C27.4108 25.1157 27.4061 25.1204 27.242 25.2704Z" fill="#EC9640"/>
<path d="M20.0094 14.0294L20.0234 15.7263L20.7734 16.1622C21.1859 16.406 21.5469 16.6029 21.5703 16.6075C21.6266 16.6075 23.0563 14.1607 23.0656 14.0482C23.0703 13.9825 22.3109 13.5185 20.9047 12.731C20.7781 12.6654 20.6 12.5575 20.4969 12.4966C20.3984 12.431 20.2484 12.37 20.1594 12.356L20 12.3279L20.0094 14.0294Z" fill="#ECC140"/>
<path d="M23.6418 16.0257C23.234 16.7335 22.9059 17.3335 22.9152 17.357C22.9246 17.3851 23.2715 17.6007 23.6887 17.8445L24.4434 18.2804L25.9293 17.4226C27.6262 16.4429 27.5371 16.5601 26.909 16.1945C26.7309 16.0913 26.3465 15.8663 26.0559 15.6976C25.7652 15.5288 25.5215 15.3882 25.5121 15.3882C25.498 15.3882 25.3387 15.2991 25.1465 15.1866C24.959 15.0741 24.7105 14.9288 24.5934 14.8632L24.3824 14.7413L23.6418 16.0257Z" fill="#ECC140"/>
<path d="M12.5516 16.6958C12.5141 16.7567 12.5 18.102 12.5 20.8536C12.5 24.8145 12.5047 24.927 12.5937 25.1145C12.6781 25.2833 12.7719 25.3536 13.5406 25.8036C15.1109 26.7224 15.6125 27.0083 15.6219 26.9989C15.6266 26.9942 16.4562 25.5552 17.4687 23.802C18.4812 22.0489 19.325 20.5911 19.3437 20.5677C19.3766 20.5302 15.8703 18.4677 12.8703 16.7567C12.6078 16.6114 12.5984 16.6067 12.5516 16.6958Z" fill="#ECC140"/>
<path d="M20 18.3978C20 19.0259 20.0188 19.3681 20.0469 19.3259C20.0703 19.2884 20.2672 18.9509 20.4828 18.5759L20.8766 17.8962L20.5672 17.7181C20.3984 17.6197 20.2016 17.5072 20.1313 17.4697L20 17.3993V18.3978Z" fill="#ECC140"/>
<path d="M21.8754 19.0822C21.7348 19.3306 21.5473 19.6587 21.4582 19.8134L21.2988 20.09L21.5051 19.9775C21.6176 19.9118 22.002 19.6962 22.3535 19.49L22.9957 19.1197L22.8691 19.0447C22.7988 19.0025 22.6066 18.89 22.4379 18.7962L22.1332 18.6275L21.8754 19.0822Z" fill="#ECC140"/>
<path d="M18.4528 25.0072C17.6137 26.4556 16.9247 27.665 16.9153 27.6978C16.9059 27.7306 17.159 27.8993 17.4778 28.0822C17.7965 28.2603 18.4247 28.6259 18.8747 28.8884C19.3247 29.1509 19.7653 29.3759 19.8497 29.39L19.9997 29.4181V25.8931C19.9997 23.9572 19.995 22.3728 19.9856 22.3728C19.9809 22.3728 19.2872 23.5587 18.4528 25.0072Z" fill="#ECC140"/>
<path d="M19.9998 9.56184C19.9998 10.3775 19.967 10.3259 20.492 10.3259C21.5139 10.3259 22.9295 10.6447 24.0873 11.1322C24.6123 11.3525 24.6357 11.3712 24.5842 11.465C24.5561 11.5212 24.2279 12.0931 23.8576 12.7353C23.4826 13.3775 23.1639 13.9493 23.1404 14.0009C23.1217 14.0572 22.4045 15.3087 21.5514 16.79L19.9998 19.4759L20.0092 20.854L20.0232 22.2275L20.8389 20.8118C23.6842 15.8853 24.2514 14.9103 24.4389 14.615C24.5561 14.4322 24.9217 13.8134 25.2545 13.2368C25.5873 12.6556 25.8732 12.1681 25.892 12.1493C26.0092 12.0415 27.6873 13.5603 28.2592 14.2868C29.5107 15.8853 30.2607 17.6853 30.4998 19.654C30.5654 20.2259 30.5654 21.5197 30.4998 22.0915C30.2092 24.5384 29.0654 26.8165 27.2748 28.5181C25.4514 30.2525 23.0701 31.2931 20.6326 31.415L20.0232 31.4431L20.0092 32.165L19.9951 32.8868L20.6889 32.8587C23.9936 32.7228 27.2514 31.04 29.3842 28.3728C29.9514 27.6603 30.3357 27.0462 30.7811 26.1462C31.3482 25.0025 31.6295 24.1306 31.8686 22.8087C31.9623 22.279 31.9764 22.054 31.9764 20.8962C31.9764 19.4243 31.9342 19.0587 31.6389 17.8962C31.2123 16.2275 30.4717 14.7368 29.3889 13.3728C28.9717 12.8431 27.9498 11.8259 27.4529 11.4415C25.4186 9.87122 23.0654 8.98059 20.6936 8.88684L19.9998 8.85872V9.56184Z" fill="#EC1596"/>
<path d="M18.6408 8.92434C17.258 9.08372 15.8846 9.49622 14.633 10.1243C13.3955 10.7431 12.519 11.3806 11.4877 12.4072C9.81429 14.0853 8.68929 16.1618 8.2346 18.4212C8.03304 19.4384 7.98616 20.0197 8.01429 21.2103C8.03772 22.2884 8.10804 22.8743 8.33304 23.779C9.05022 26.6572 10.8268 29.179 13.3205 30.8572C15.0924 32.0525 17.258 32.7743 19.3112 32.8587L20.0002 32.8868V32.1837C20.0002 31.3681 20.033 31.4197 19.5127 31.4197C18.5658 31.4197 17.183 31.1243 16.1049 30.6931C15.8283 30.5806 15.5471 30.4587 15.4815 30.4259L15.3643 30.365L16.0955 29.0993C16.494 28.4009 16.8408 27.7822 16.869 27.7165C16.8924 27.6509 17.6096 26.3947 18.458 24.9228L20.0002 22.2462L19.9908 20.8915L19.9768 19.5368L19.7612 19.9118C18.5752 21.9884 15.669 26.9853 15.6127 27.0509C15.5705 27.0931 15.3596 27.4447 15.1393 27.8337C14.9143 28.2181 14.5908 28.7853 14.4127 29.09L14.0893 29.6384L13.8221 29.4415C11.844 27.9697 10.4612 25.9962 9.83304 23.7368C9.54241 22.7009 9.44866 22.0072 9.45335 20.8962C9.45335 19.1993 9.74397 17.8822 10.4424 16.3822C12.069 12.904 15.5846 10.5228 19.3674 10.3306L19.9768 10.3025L19.9908 9.58528L20.0049 8.87278L19.4987 8.87747C19.2174 8.88215 18.833 8.90091 18.6408 8.92434Z" fill="#EC4096"/>
<path d="M20 16.5513V17.3482L20.4219 17.5919C20.6562 17.7232 20.8672 17.8263 20.8906 17.8169C20.9281 17.8029 21.5984 16.6872 21.5797 16.6732C21.575 16.6685 21.2844 16.5044 20.9375 16.3029C20.5906 16.1013 20.2344 15.8997 20.1547 15.8482L20 15.7544V16.5513Z" fill="#C1ECEC"/>
<path d="M22.4933 17.9997C22.3058 18.3232 22.1605 18.595 22.1651 18.5997C22.1745 18.6044 22.3761 18.7216 22.6151 18.8575L23.0464 19.1013V20.0154C23.0464 21.0325 23.0745 21.1638 23.3464 21.356C23.4495 21.431 23.5573 21.4591 23.7355 21.4591C23.998 21.4591 24.1573 21.3747 24.3308 21.1357C24.4245 21.0138 24.4292 20.9388 24.4433 19.6638L24.4526 18.3185L23.6698 17.8732C23.2386 17.6294 22.8776 17.4232 22.8636 17.4185C22.8495 17.4091 22.6808 17.6716 22.4933 17.9997Z" fill="#C1ECEC"/>
<path d="M16.2364 14.4181C15.8848 14.6243 15.5989 14.7978 15.6036 14.8072C15.6129 14.8118 16.602 15.3884 17.8114 16.0822L20.0004 17.3478L19.9911 16.5462L19.977 15.7447L18.5004 14.8868C17.6895 14.4181 16.9911 14.0337 16.9536 14.0384C16.9161 14.0384 16.5926 14.2072 16.2364 14.4181Z" fill="#ECECEC"/>
</g>
<defs>
<clipPath id="clip0_13_1351">
<rect width="24" height="24" fill="white" transform="translate(8 8.87317)"/>
</clipPath>
</defs>
</svg>
