<svg width="25" height="24" viewBox="0 0 25 24" fill="none" xmlns="http://www.w3.org/2000/svg">
<g clip-path="url(#clip0_30_73)">
<path d="M21.5 8.61563V2.85C21.5009 2.57434 21.4473 2.30122 21.3424 2.04632C21.2374 1.79142 21.0831 1.55976 20.8884 1.36464C20.6937 1.16952 20.4623 1.01478 20.2076 0.909306C19.9529 0.803829 19.6799 0.749691 19.4043 0.750001H13.6419C13.2641 0.750779 12.9018 0.900514 12.6336 1.16672L1.11364 12.6834C0.720745 13.0776 0.500122 13.6114 0.500122 14.168C0.500122 14.7245 0.720745 15.2583 1.11364 15.6525L6.59802 21.1369C6.99204 21.5299 7.52582 21.7506 8.08231 21.7506C8.63881 21.7506 9.17259 21.5299 9.56661 21.1369L21.0833 9.62391C21.3496 9.35582 21.4994 8.99349 21.5 8.61563ZM17 6.75C16.7034 6.75 16.4134 6.66203 16.1667 6.49721C15.92 6.33238 15.7278 6.09812 15.6142 5.82403C15.5007 5.54994 15.471 5.24834 15.5289 4.95737C15.5867 4.66639 15.7296 4.39912 15.9394 4.18934C16.1492 3.97956 16.4164 3.8367 16.7074 3.77882C16.9984 3.72095 17.3 3.75065 17.5741 3.86418C17.8482 3.97771 18.0824 4.16997 18.2473 4.41665C18.4121 4.66332 18.5 4.95333 18.5 5.25C18.5 5.64783 18.342 6.02936 18.0607 6.31066C17.7794 6.59197 17.3979 6.75 17 6.75Z" fill="#AEA9B1"/>
<path d="M23.75 3C23.5511 3 23.3603 3.07902 23.2197 3.21967C23.079 3.36032 23 3.55109 23 3.75V9.72047L10.7511 21.9698C10.6785 22.0388 10.6205 22.1216 10.5804 22.2133C10.5404 22.305 10.519 22.4039 10.5178 22.504C10.5165 22.6041 10.5353 22.7034 10.573 22.7961C10.6107 22.8889 10.6666 22.9731 10.7374 23.0439C10.8082 23.1147 10.8924 23.1706 10.9851 23.2083C11.0779 23.246 11.1772 23.2648 11.2773 23.2635C11.3774 23.2622 11.4762 23.2409 11.568 23.2008C11.6597 23.1608 11.7425 23.1027 11.8114 23.0302L24.0927 10.7489C24.2233 10.6177 24.3266 10.4618 24.3965 10.2903C24.4665 10.1188 24.5016 9.93518 24.5 9.75V3.75C24.5 3.55109 24.421 3.36032 24.2804 3.21967C24.1397 3.07902 23.9489 3 23.75 3Z" fill="#AEA9B1"/>
</g>
<defs>
<clipPath id="clip0_30_73">
<rect width="24" height="24" fill="white" transform="translate(0.5)"/>
</clipPath>
</defs>
</svg>
