<svg width="25" height="24" viewBox="0 0 25 24" fill="none" xmlns="http://www.w3.org/2000/svg">
<path d="M9.7437 0.562495C7.69995 1.59375 6.6687 3.15 6.53745 5.4375C6.4437 7.33125 6.91245 8.60625 8.2062 9.91875C11.0187 12.7125 15.7062 11.9812 17.6 8.41875C17.9562 7.72499 18.0312 7.3125 18.0312 5.8125C18.0312 3.76875 17.6562 2.775 16.4562 1.6125C15.2937 0.506246 14.3 0.0937462 12.5 0.0374956C11.0187 -0.018754 10.8125 0.0187454 9.7437 0.562495Z" fill="#AEA9B1"/>
<path d="M6.74375 11.625C5.1875 11.9438 4.25 12.7125 3.44375 14.3438C2.75 15.7688 2.4875 17.1375 2.46875 19.3125C2.46875 21.1313 2.50625 21.3563 2.975 22.1625C3.36875 22.8 3.74375 23.1563 4.475 23.5125L5.45 24H12.4812C18.8937 24 19.6062 23.9625 20.2812 23.6438C22.1375 22.8 22.8312 21.075 22.4937 18.1313C22.025 14.1563 20.6562 12.1125 18.1437 11.625C17.2437 11.4563 17.0375 11.475 16.4562 11.8125C14.3375 13.0125 13.7375 13.2188 12.4062 13.2188C11.1875 13.2188 10.9625 13.1438 9.4625 12.3188C8.58125 11.8313 7.775 11.4375 7.68125 11.4563C7.60625 11.475 7.175 11.55 6.74375 11.625Z" fill="#AEA9B1"/>
</svg>
