<svg width="40" height="41" viewBox="0 0 40 41" fill="none" xmlns="http://www.w3.org/2000/svg">
<circle cx="20" cy="20.8732" r="20" fill="#00B074" fill-opacity="0.15"/>
<path d="M24.985 14.4372C24.985 14.4841 24.9709 14.6341 24.9568 14.7654C24.924 15.0091 24.9287 15.0138 25.0506 15.0138C25.1537 15.0138 26.7615 14.8122 27.0475 14.7654C27.1225 14.7513 26.5084 14.6107 26.1803 14.5638C26.0771 14.5497 25.7959 14.4982 25.5521 14.4466C25.0178 14.3388 24.985 14.3388 24.985 14.4372Z" fill="#404040"/>
<path d="M13.1953 19.5841V23.6388L13.3828 23.6575C13.4859 23.6716 13.6922 23.695 13.8422 23.7091L14.1094 23.7325V20.0622V16.3919L13.7953 16.0919C13.6172 15.9232 13.4156 15.731 13.3359 15.6607L13.1953 15.5341V19.5841Z" fill="#404040"/>
<path d="M13.1815 28.8754C13.2003 29.3254 13.2096 29.3629 13.6128 30.3895C13.8378 30.9707 14.0346 31.4535 14.044 31.4629C14.0534 31.4723 14.0628 30.8301 14.0628 30.0285V28.5754L13.6456 28.4957C13.4159 28.4535 13.2143 28.4207 13.1956 28.4207C13.1815 28.4207 13.1721 28.627 13.1815 28.8754Z" fill="#404040"/>
<path d="M25.2093 13.9591L24.989 14.3341L25.1625 14.3669C25.2562 14.3904 25.3875 14.4138 25.4531 14.4279C25.5187 14.4419 25.5468 14.4372 25.514 14.4138C25.4812 14.395 25.4531 14.2263 25.4437 13.9825L25.4296 13.5841L25.2093 13.9591Z" fill="#228F45"/>
<path d="M26.9953 14.7279C27.0656 14.7466 26.7188 14.8075 26.0813 14.8919C25.5188 14.9622 24.9141 15.0466 24.7406 15.0747L24.4219 15.1263V15.9513V16.7716L24.7266 17.1935C26.3578 19.4482 26.4938 22.6075 25.0688 24.9982C24.7406 25.5466 24.4781 25.8841 23.9813 26.395C23.2922 27.1029 22.5516 27.6044 21.5906 28.0169C21.1922 28.1904 20.2031 28.4669 19.9922 28.4669C19.9359 28.4669 19.7297 28.5935 19.5328 28.7482C18.1172 29.8638 17.8734 30.0044 17.625 29.8732C17.4844 29.7982 17.4422 29.6857 17.3719 29.1654C17.3344 28.8982 17.2734 28.6591 17.2359 28.6216C17.1797 28.5654 17.0766 28.5654 16.5422 28.6122C15.9328 28.6638 14.4 28.645 14.1703 28.5794L14.0625 28.5513V30.0325V31.5138H14.1703C14.2266 31.5138 14.4609 31.481 14.6906 31.4435C14.9203 31.406 15.1266 31.3872 15.1453 31.4013C15.1641 31.4107 15.1922 31.4013 15.2109 31.3732C15.225 31.345 15.2953 31.3263 15.3656 31.3263C15.4359 31.331 15.975 31.2466 16.5656 31.1435C17.1563 31.0404 17.6578 30.9654 17.6766 30.9794C17.6953 30.9888 17.7234 30.9794 17.7422 30.9513C17.7563 30.9232 17.8266 30.9044 17.8969 30.9044C17.9672 30.9091 18.1313 30.8857 18.2578 30.8575C18.3891 30.8294 18.7875 30.7544 19.1484 30.6888C20.3672 30.4685 20.5594 30.4357 21.6563 30.2247C22.0031 30.1544 22.3641 30.0888 22.4531 30.0794C22.6781 30.0466 22.7438 30.0325 22.8281 29.9997C22.8656 29.9857 23.1609 29.92 23.4844 29.8544C24.3797 29.6716 25.3078 29.47 26.1094 29.2825C26.8125 29.1138 26.8406 29.1044 27.0188 28.9169L27.1969 28.7247L27.1875 22.1154C27.1781 14.1185 27.1828 14.7654 27.1219 14.7232C27.0938 14.7044 27.0281 14.6904 26.9766 14.6904C26.8969 14.695 26.9016 14.6997 26.9953 14.7279Z" fill="#228F45"/>
<path d="M23.2504 15.2719C23.0301 15.3048 22.8426 15.3329 22.8285 15.3376C22.8144 15.3376 22.9129 15.4126 23.0394 15.5016C23.1707 15.586 23.391 15.7594 23.5316 15.886C23.6722 16.0079 23.8269 16.1391 23.8738 16.1766C23.9488 16.2423 23.9535 16.2188 23.9535 15.7266V15.2016L23.8035 15.2063C23.7191 15.211 23.4707 15.2391 23.2504 15.2719Z" fill="#228F45"/>
<path d="M11.3629 19.2794L11.3676 23.17L11.6957 23.2872C12.0004 23.395 12.5911 23.545 12.9895 23.6107L13.1582 23.6388L13.1864 20.77C13.2004 19.1904 13.2004 17.3575 13.1864 16.6966L13.1582 15.4919L12.3332 15.4591C11.8786 15.445 11.4754 15.4169 11.4332 15.4075C11.3582 15.3888 11.3536 15.6841 11.3629 19.2794Z" fill="#228F45"/>
<path d="M22.9128 17.0487C22.6831 17.1706 22.6737 17.18 22.7393 17.2221C22.8893 17.3159 23.405 17.4565 23.5081 17.4331C23.6487 17.3956 23.6159 17.2596 23.4284 17.1003C23.2737 16.969 23.1003 16.9503 22.9128 17.0487Z" fill="#228F45"/>
<path d="M22.5474 17.7801C22.5474 17.8317 22.6083 17.9395 22.6786 18.0192C22.8286 18.1879 23.0489 18.2113 23.288 18.0895C23.4942 17.9817 23.5177 17.9207 23.3489 17.9207C23.2692 17.9207 23.0677 17.8692 22.8942 17.8035C22.5192 17.6629 22.5474 17.6629 22.5474 17.7801Z" fill="#228F45"/>
<path d="M17.2735 17.9997C17.1235 18.0794 17.011 18.206 17.0438 18.2528C17.0532 18.2716 17.1329 18.2997 17.2219 18.3138C17.4188 18.3513 17.6907 18.2482 17.7657 18.1122C17.8079 18.0278 17.7985 18.0091 17.6954 17.9669C17.5266 17.9013 17.4376 17.9107 17.2735 17.9997Z" fill="#228F45"/>
<path d="M17.8359 18.6704C17.6531 18.7876 17.3391 18.8345 17.1094 18.7735C16.9969 18.7454 16.9219 18.7454 16.9219 18.7689C16.9219 18.8814 17.0906 19.0501 17.25 19.097C17.4938 19.172 17.7469 19.0454 17.8969 18.7735C17.9578 18.6657 18 18.5767 17.9906 18.5814C17.9813 18.5814 17.9156 18.6235 17.8359 18.6704Z" fill="#228F45"/>
<path d="M11.3438 28.7716C11.3438 29.4044 11.3625 29.7794 11.3906 29.7794C11.4281 29.7794 12.8391 29.4044 13.0922 29.3294C13.1625 29.306 13.1719 29.2404 13.1719 28.8607C13.1719 28.5466 13.1531 28.4107 13.1156 28.4013C12.4734 28.2138 12.0047 28.0497 11.7234 27.9232C11.5312 27.8341 11.3719 27.7638 11.3625 27.7638C11.3531 27.7638 11.3438 28.2185 11.3438 28.7716Z" fill="#228F45"/>
<path d="M8.84063 21.1313C8.88281 21.5813 8.89219 21.6704 8.96719 22.2095C9.00469 22.4673 9.0375 22.711 9.0375 22.7485C9.0375 22.786 9.07031 23.0298 9.1125 23.2876C9.15 23.5454 9.19219 23.8829 9.20625 24.0423C9.225 24.2813 9.27188 24.647 9.35156 25.2657C9.36094 25.3267 9.37969 25.4579 9.39844 25.561C9.41719 25.6642 9.43125 25.7626 9.43125 25.7813C9.43125 25.8048 9.46406 25.9032 9.50625 26.0063C9.675 26.4329 10.0312 26.8688 10.4344 27.1501C10.5609 27.2392 10.6734 27.3282 10.6875 27.3423C10.7016 27.361 10.7438 27.3892 10.7813 27.4032C10.8188 27.422 10.9359 27.4876 11.0391 27.5532C11.2641 27.6938 11.5312 27.8204 11.9953 28.0079C13.2047 28.5001 14.6531 28.7017 16.2609 28.6032C16.7109 28.5751 17.0953 28.547 17.1094 28.5376C17.1281 28.5282 17.1844 28.547 17.2359 28.5845C17.3156 28.6407 17.3438 28.7438 17.3953 29.1517C17.4563 29.6907 17.5312 29.8454 17.7703 29.897C17.9156 29.9298 18.2063 29.7423 19.1484 29.011C20.7609 27.7595 22.2797 26.311 23.2453 25.1017C23.6766 24.5626 23.5828 24.4407 22.3828 24.0188C21.9188 23.8548 21.3422 23.6485 21.1031 23.5642C20.8641 23.4798 20.6766 23.4235 20.6906 23.447C20.7047 23.4657 20.6719 23.6579 20.625 23.8688C20.2734 25.3313 19.0641 26.5923 17.4516 27.1688C16.3172 27.5767 14.7938 27.5907 13.6313 27.2017C12.9328 26.9673 12.4078 26.6767 11.8359 26.2079C10.8516 25.4017 10.2891 24.2767 10.2469 23.0438L10.2281 22.561L9.87188 22.2282C9.50156 21.8813 9.19219 21.4876 8.94844 21.0517L8.8125 20.8032L8.84063 21.1313Z" fill="#ECC140"/>
<path d="M14.0997 23.7656C14.1559 23.7749 14.2403 23.7749 14.2872 23.7656C14.3293 23.7515 14.2825 23.7421 14.1793 23.7468C14.0762 23.7468 14.0387 23.7562 14.0997 23.7656Z" fill="#ECC140"/>
<path d="M14.9434 23.7656C14.9997 23.7749 15.084 23.7749 15.1309 23.7656C15.1731 23.7515 15.1262 23.7421 15.0231 23.7468C14.92 23.7468 14.8825 23.7562 14.9434 23.7656Z" fill="#ECC140"/>
<path d="M10.8753 17.8825C10.2987 18.2622 9.55808 18.9935 9.25808 19.481C9.00026 19.9029 8.76589 20.531 8.77058 20.8029C8.77058 20.9435 8.77995 20.9669 8.80808 20.8966C8.84558 20.8075 8.84558 20.8075 8.87839 20.9107C8.95808 21.1591 9.48776 21.8669 9.8487 22.2044L10.2284 22.5654L10.2471 23.0435C10.2706 23.8122 10.4862 24.5154 10.88 25.12C11.405 25.9216 12.0003 26.4466 12.8862 26.8919C13.6784 27.295 14.5175 27.4825 15.4971 27.4825C17.0815 27.4825 18.4878 26.9154 19.4768 25.8794C19.9081 25.4341 20.1425 25.0919 20.3721 24.5997C20.5409 24.2341 20.7378 23.4982 20.6815 23.4466C20.6628 23.4325 19.8003 23.1185 18.7643 22.7529C17.0018 22.1247 16.8753 22.0872 16.7487 22.1482C16.5237 22.256 16.4956 22.3779 16.5706 22.9497C16.6175 23.2872 16.6221 23.4888 16.594 23.545C16.5378 23.6482 16.4159 23.6716 15.4925 23.7372C14.0487 23.8404 12.6565 23.6857 11.6159 23.306C11.4659 23.2497 11.344 23.1935 11.344 23.1747C11.344 23.156 11.2643 23.1138 11.1706 23.081L10.9971 23.0154L11.1706 22.9263L11.344 22.8419V20.2169C11.344 18.7732 11.3393 17.5919 11.33 17.5919C11.3253 17.5919 11.119 17.7232 10.8753 17.8825Z" fill="#ECEC40"/>
<path d="M9.98464 26.8029C10.0737 26.8919 10.1534 26.9669 10.1674 26.9669C10.1815 26.9669 10.1206 26.8919 10.0315 26.8029C9.94245 26.7138 9.86276 26.6388 9.8487 26.6388C9.83464 26.6388 9.89557 26.7138 9.98464 26.8029Z" fill="#ECEC40"/>
<path d="M24.8672 13.5798L24.3984 13.6313L24.4172 14.3579C24.4219 14.7563 24.4359 15.0891 24.4406 15.0938C24.4453 15.0985 24.5578 15.0938 24.6891 15.0798L24.9281 15.0516L24.9469 14.6907C24.9609 14.4188 24.9938 14.2923 25.0828 14.1469C25.3688 13.6923 25.4531 13.5141 25.3969 13.5188C25.3641 13.5235 25.125 13.5516 24.8672 13.5798Z" fill="#6B6B6B"/>
<path d="M22.7582 13.8144C22.3223 13.866 21.9379 13.9269 21.9051 13.9504C21.8769 13.9691 21.7176 13.9879 21.5535 13.9879C21.2582 13.9926 18.4738 14.3394 18.4363 14.3769C18.3707 14.4426 18.3332 15.216 18.3285 16.5285C18.3285 18.0801 18.3144 18.2207 18.1129 18.441C18.0754 18.4832 17.9957 18.6097 17.9394 18.7222C17.6957 19.2051 17.166 19.2754 16.9598 18.8582C16.8379 18.6191 16.8566 18.4316 17.0113 18.216C17.2129 17.9394 17.4754 17.8597 17.7754 17.9863C17.8457 18.0191 17.8551 17.8832 17.8691 16.2472C17.8785 15.2722 17.8785 14.466 17.8738 14.4566C17.8551 14.4238 15.9191 14.6957 15.8629 14.7379C15.8348 14.7613 15.6426 14.7894 15.441 14.8035C15.0988 14.8269 13.9269 14.991 12.1644 15.2676C11.7801 15.3285 11.4941 15.3894 11.5316 15.4035C11.5691 15.4176 11.9629 15.441 12.3988 15.4597L13.1957 15.4879L13.6832 15.966L14.166 16.4441L14.1332 20.0957L14.1004 23.7472L15.0098 23.7144C16.1394 23.6722 16.491 23.6301 16.5519 23.5457C16.5754 23.5082 16.5848 23.3816 16.5707 23.2644C16.5566 23.1472 16.5332 22.8894 16.5144 22.6879C16.4863 22.3504 16.4957 22.3176 16.5941 22.2097C16.7957 21.9941 16.4629 21.8957 22.266 23.9582C22.8754 24.1738 23.316 24.3566 23.3816 24.4222C23.4473 24.4879 23.4848 24.5816 23.4848 24.6894C23.4848 24.8254 23.4238 24.9285 23.1238 25.2894C22.6129 25.9035 21.2769 27.2535 20.5457 27.8957C20.2035 28.191 19.9223 28.4441 19.9223 28.4535C19.9223 28.5238 20.9488 28.2566 21.4926 28.041C24.4269 26.8972 26.3066 23.8691 26.016 20.7472C25.8988 19.4582 25.4488 18.2347 24.7176 17.1988L24.4551 16.8238L24.3754 17.1051C24.3332 17.2551 24.2629 17.4426 24.216 17.5129C24.1269 17.6441 23.8363 17.8363 23.6254 17.8972C23.5598 17.916 23.4473 17.9816 23.3769 18.0426C22.9785 18.3754 22.4723 18.0988 22.5238 17.5738C22.5519 17.2504 22.8379 16.9832 23.1566 16.9832C23.3629 16.9832 23.4988 17.0769 23.5785 17.2597C23.6254 17.3769 23.6535 17.3957 23.7191 17.3582C23.8691 17.2785 23.9535 17.016 23.9535 16.641V16.2894L23.6676 16.0269C23.5129 15.8816 23.2598 15.6754 23.1051 15.5676C22.9551 15.4597 22.8285 15.3566 22.8285 15.3379C22.8285 15.3238 23.0769 15.2816 23.3816 15.2441L23.9301 15.1785L23.9441 14.7332C23.9535 14.4894 23.9441 14.1566 23.9301 13.9926L23.8973 13.7019L23.7285 13.7066C23.6348 13.7113 23.1988 13.7582 22.7582 13.8144ZM15.291 19.2191C15.366 19.2894 15.3754 19.3879 15.3754 20.3394V21.3894L15.2582 21.4644C15.1504 21.5347 15.1316 21.5347 15.0238 21.4644L14.9066 21.3894V20.3113C14.9066 19.3363 14.916 19.2332 14.991 19.191C15.1082 19.1207 15.1926 19.1301 15.291 19.2191ZM15.291 21.9379C15.3519 21.9941 15.3754 22.0785 15.3754 22.266C15.3754 22.5894 15.3144 22.7019 15.1504 22.7019C14.9535 22.7019 14.9066 22.6222 14.9066 22.2707C14.9066 22.0222 14.9254 21.9472 14.991 21.9097C15.1082 21.8394 15.1926 21.8488 15.291 21.9379Z" fill="#228F45"/>
<path d="M12.2719 29.5548C11.7844 29.686 11.3906 29.8079 11.3906 29.8266C11.3906 29.8641 14.0203 31.5751 14.0391 31.5516C14.0625 31.5282 13.2047 29.311 13.1766 29.3157C13.1625 29.3157 12.7547 29.4235 12.2719 29.5548Z" fill="#6B6B6B"/>
<path d="M18.3047 10.2607C17.6578 10.4154 16.8984 10.9122 16.4109 11.4982C15.7734 12.2669 15.4406 13.1388 15.3891 14.2029C15.3563 14.845 15.3422 14.8216 15.6891 14.7513L15.8297 14.7232L15.8625 14.2404C15.8813 13.9732 15.9375 13.5888 15.9844 13.3872C16.2938 12.1779 17.175 11.1654 18.2344 10.7904C18.4781 10.706 18.6375 10.6825 19.0313 10.6825C19.5609 10.6825 19.7813 10.7435 20.2313 11.006L20.4516 11.1325L20.1234 11.306C19.1719 11.8075 18.4781 12.6279 18.1031 13.7107L17.9344 14.1935L17.9156 16.0685C17.8969 18.1638 17.8969 18.145 17.5688 18.3091C17.4234 18.3794 17.3672 18.3841 17.1984 18.3419C16.9734 18.281 16.9219 18.3185 16.9219 18.5435C16.9219 18.6982 17.0578 18.7638 17.3578 18.7638C17.7891 18.7591 18.1875 18.431 18.2813 18.0044C18.3094 17.8685 18.3281 17.1138 18.3281 16.1904V14.606L18.4734 14.1419C18.7406 13.3029 19.0547 12.7825 19.6219 12.2529C19.9922 11.906 20.6906 11.5075 20.8313 11.5591C20.925 11.5966 21.2672 12.3091 21.3516 12.6466C21.3891 12.8013 21.4359 13.1669 21.4547 13.4575C21.4828 13.9685 21.4875 13.9872 21.5813 13.9638C21.6375 13.9497 21.7406 13.9357 21.8156 13.9357H21.9516L21.9234 13.3591C21.8906 12.7122 21.7781 12.2482 21.5438 11.7654L21.3844 11.4513H21.6328C21.9844 11.4513 22.4484 11.6107 22.7906 11.8404C23.1516 12.0888 23.5359 12.581 23.6906 12.9982C23.9578 13.706 23.9531 13.6732 23.9531 15.4357C23.9531 17.2685 23.9531 17.2825 23.6438 17.4279C23.4422 17.5216 23.4047 17.5169 23.0156 17.3763C22.6547 17.2404 22.6125 17.2497 22.5656 17.4841C22.5375 17.6247 22.5469 17.6294 22.8094 17.7372C23.0063 17.8169 23.1844 17.845 23.4234 17.8497C23.7188 17.8497 23.7797 17.8357 23.9578 17.7091C24.0656 17.6294 24.2016 17.4841 24.2531 17.381C24.3469 17.2029 24.3516 17.1185 24.3609 15.3888C24.375 13.3872 24.3609 13.2607 24.075 12.656C23.7797 12.0138 23.3297 11.5357 22.7484 11.245C22.3594 11.0529 22.0125 10.9779 21.4734 10.9779L20.9906 10.9825L20.775 10.795C20.5219 10.57 20.0953 10.3544 19.7109 10.256C19.3641 10.1669 18.6797 10.1716 18.3047 10.2607Z" fill="white"/>
</svg>
