<svg width="40" height="41" viewBox="0 0 40 41" fill="none" xmlns="http://www.w3.org/2000/svg">
<circle cx="20" cy="20.8732" r="20" fill="#00B074" fill-opacity="0.15"/>
<path d="M19.8609 13.6544C19.5792 13.6544 19.3579 13.4331 19.3579 13.1514V11.8839C19.3579 10.5157 18.2512 9.40906 16.9032 9.40906C16.2392 9.40906 15.6356 9.67062 15.1527 10.1334C14.6698 10.5962 14.4284 11.2199 14.4284 11.8839V13.1514C14.4284 13.4331 14.2071 13.6544 13.9254 13.6544C13.6437 13.6544 13.4224 13.4331 13.4224 13.1514V11.8839C13.4224 10.9583 13.7845 10.0931 14.4284 9.42918C15.0923 8.76521 15.9575 8.40304 16.8831 8.40304C18.7945 8.40304 20.3438 9.9523 20.3438 11.8637V13.1313C20.3639 13.4331 20.1425 13.6544 19.8609 13.6544Z" fill="#FFD497"/>
<path d="M27.7687 30.6158H13.1009L10.6664 11.8234H26.7425L27.7687 30.6158Z" fill="#00B074"/>
<path d="M13.1013 30.616L9.62045 30.0124L6.11951 30.616L7.16577 11.8236H12.055L13.1013 30.616Z" fill="#0A5239"/>
<path d="M19.4795 18.302C17.5681 18.302 16.0188 16.7527 16.0188 14.8413V13.5737C16.0188 13.292 16.2401 13.0707 16.5218 13.0707C16.8035 13.0707 17.0248 13.292 17.0248 13.5737V14.8413C17.0248 16.2095 18.1314 17.296 19.4795 17.296C20.8276 17.296 21.9543 16.1894 21.9543 14.8212V13.5536C21.9543 13.2719 22.1756 13.0506 22.4573 13.0506C22.739 13.0506 22.9603 13.2719 22.9603 13.5536V14.8212C22.9603 16.7527 21.411 18.302 19.4795 18.302Z" fill="white"/>
<path opacity="0.1" d="M20.3842 28.0403C20.3842 28.9659 20.6256 29.8512 21.0481 30.6157H27.7884L27.3659 22.8895C26.8629 22.7286 26.3398 22.6481 25.7965 22.6481C22.7986 22.6481 20.3842 25.0625 20.3842 28.0403Z" fill="#0C1E5B"/>
<path d="M28.5933 33.4328C31.5713 33.4328 33.9855 31.0186 33.9855 28.0405C33.9855 25.0625 31.5713 22.6483 28.5933 22.6483C25.6152 22.6483 23.201 25.0625 23.201 28.0405C23.201 31.0186 25.6152 33.4328 28.5933 33.4328Z" fill="#FF6966"/>
<path d="M28.0299 30.133C27.8689 30.133 27.7281 30.0726 27.6074 29.9519L25.8971 28.2417C25.6557 28.0002 25.6557 27.618 25.8971 27.3966C26.1386 27.1552 26.5209 27.1552 26.7422 27.3966L28.0299 28.6843L30.4443 26.2699C30.6858 26.0285 31.0681 26.0285 31.2894 26.2699C31.5308 26.5113 31.5308 26.8936 31.2894 27.115L28.4524 29.9519C28.3317 30.0726 28.1708 30.133 28.0299 30.133Z" fill="white"/>
</svg>
