<svg width="16" height="18" viewBox="0 0 16 18" fill="none" xmlns="http://www.w3.org/2000/svg">
<path d="M3.62993 2.95965L0 5.05486V9.39209V13.7427L3.69665 15.8646L7.37996 17.9998L8.40755 17.4393C9.40845 16.9055 9.44848 16.8922 9.66201 17.1324C9.79546 17.2792 10.2092 17.5194 10.5828 17.6795C11.5437 18.0932 13.1718 18.0265 14.0259 17.5194C15.2137 16.8121 15.9076 15.7178 15.9877 14.4099C16.0544 13.3823 15.8542 12.675 15.2804 11.8209L14.8133 11.1403V8.08425V5.02817L11.1967 2.9463C9.20827 1.7986 7.51341 0.864431 7.42 0.864431C7.33992 0.864431 5.63172 1.81195 3.62993 2.95965ZM10.3426 3.8004C11.6638 4.56108 12.8248 5.24169 12.9183 5.30842C13.0517 5.41518 12.8115 5.60202 11.9841 6.08245C11.0766 6.61626 10.8364 6.69633 10.6095 6.57623C10.2625 6.38939 5.28475 3.5068 5.23136 3.46677C5.20467 3.44008 5.6851 3.11979 6.29899 2.75947C7.25985 2.18562 7.44669 2.11889 7.67356 2.25234C7.82036 2.34576 9.02143 3.03972 10.3426 3.8004ZM7.51341 6.13583C8.66111 6.78975 9.60863 7.3636 9.60863 7.40364C9.60863 7.49705 7.47338 8.67144 7.35327 8.64475C7.29989 8.6314 6.00539 7.89741 4.48403 7.02997L1.7082 5.42853L2.82921 4.76126L3.93687 4.10734L4.68421 4.52105C5.08457 4.74792 6.36572 5.46856 7.51341 6.13583ZM4.00359 8.09759L6.80611 9.71238V12.9686C6.80611 14.7436 6.76608 16.2115 6.71269 16.2115C6.64597 16.2115 5.37816 15.4909 3.87014 14.6235L1.13435 13.0354L1.09432 9.75241C1.08097 7.95079 1.09432 6.46946 1.13435 6.46946C1.16104 6.46946 2.45554 7.20346 4.00359 8.09759ZM13.7457 8.48461V10.4997L13.4521 10.4197C13.2786 10.3663 12.7848 10.2862 12.3444 10.2462C10.8097 10.1127 9.40845 10.9268 8.6878 12.3681C8.22071 13.3023 8.1273 14.4366 8.46093 15.3841C8.64777 15.9046 8.64777 15.9313 8.32748 16.1448L8.00719 16.345V13.0487V9.73907L10.783 8.11094C12.3044 7.23015 13.5855 6.49615 13.6523 6.48281C13.7056 6.46946 13.7457 7.37695 13.7457 8.48461ZM13.1318 11.5407C13.3186 11.6074 13.7056 11.8877 14.0126 12.1546C15.4138 13.4224 15.0669 15.6644 13.332 16.5318C12.4912 16.9455 11.8907 16.9722 11.0766 16.5986C10.3293 16.2649 10.049 16.0114 9.74208 15.4108C9.38176 14.7169 9.30169 14.0629 9.47517 13.4224C9.64866 12.7685 10.4227 11.8476 11.0099 11.5941C11.477 11.3805 12.6514 11.3538 13.1318 11.5407Z" fill="#7A808C"/>
<path d="M12.4779 13.4089L11.6905 14.2096L11.3168 13.8493L10.9432 13.489L10.5428 13.876L10.1425 14.263L10.9031 15.037L11.6638 15.811L12.9049 14.5833L14.1461 13.3555L13.7857 12.9818C13.5855 12.7816 13.3987 12.6082 13.3453 12.6082C13.3053 12.6082 12.9183 12.9685 12.4779 13.4089Z" fill="#7A808C"/>
</svg>
