<svg width="16" height="16" viewBox="0 0 16 16" fill="none" xmlns="http://www.w3.org/2000/svg">
<path d="M6.03352 0.173621C5.65799 0.261198 4.8819 0.573973 4.28105 0.861725C2.74137 1.62489 1.60226 2.78841 0.838685 4.37731C0.16273 5.76603 0 6.49166 0 7.99298C0 9.4943 0.16273 10.2199 0.838685 11.6086C1.6273 13.2476 2.75389 14.3736 4.39371 15.1618C5.77065 15.8248 6.5092 16 7.93621 16C8.78741 16 9.01273 15.9625 9.17546 15.7748C9.45085 15.462 9.43833 15.1743 9.13791 14.874C8.92511 14.6613 8.72483 14.6238 7.91118 14.6238C5.03211 14.6238 2.41591 12.622 1.57723 9.75703C1.31436 8.86875 1.31436 7.11721 1.57723 6.22893C2.24067 3.98947 4.04321 2.2004 6.30891 1.54983C7.33536 1.24957 9.28812 1.33714 10.3021 1.73749C11.3285 2.12533 12.4801 2.95106 13.1311 3.75176L13.6943 4.42735L12.7055 4.48991C11.7917 4.55246 11.6915 4.57748 11.5288 4.87775C11.3661 5.17801 11.3661 5.24056 11.5538 5.54083C11.7666 5.8536 11.8042 5.86611 13.0935 5.86611C14.5706 5.86611 15.0087 5.72849 15.5845 5.12797C15.96 4.72762 15.96 4.70259 15.9976 3.20128C16.0101 2.36304 15.9726 1.59987 15.91 1.49978C15.7598 1.26208 15.0337 1.26208 14.8835 1.49978C14.8209 1.59987 14.7709 2.0878 14.7709 2.60075V3.52656L14.3327 2.95106C13.4064 1.73749 11.5914 0.586484 9.95156 0.173621C9.05029 -0.0515766 6.97235 -0.0640869 6.03352 0.173621Z" fill="#7A808C"/>
<path d="M7.53558 2.51306C7.42293 2.62566 7.38537 3.38883 7.38537 5.19041V7.70511L6.1336 8.91867C5.13219 9.88202 4.88184 10.1948 4.88184 10.47C4.88184 10.9204 5.08212 11.1206 5.53276 11.1206C5.82066 11.1206 6.14612 10.8579 7.2602 9.71938L8.62462 8.30564L8.63714 5.47816C8.63714 3.45138 8.59959 2.62566 8.48693 2.51306C8.29916 2.32539 7.72335 2.32539 7.53558 2.51306Z" fill="#7A808C"/>
<path d="M14.7833 9.10632C14.4453 9.44412 14.3327 10.1948 14.583 10.5701C14.9961 11.2082 15.7597 10.7703 15.8598 9.81945C15.9224 9.31901 15.8974 9.16888 15.7096 9.03126C15.3842 8.80606 15.0587 8.83108 14.7833 9.10632Z" fill="#7A808C"/>
<path d="M13.5815 11.8465C13.5064 11.8965 13.3187 12.0967 13.1684 12.2969C12.6803 12.9349 12.8931 13.5229 13.6066 13.5229C14.27 13.5229 14.9209 12.3219 14.4953 11.8965C14.3326 11.7339 13.7818 11.6963 13.5815 11.8465Z" fill="#7A808C"/>
<path d="M10.9526 14.0358C10.4018 14.3486 10.2892 14.6363 10.527 15.0742C10.7273 15.4495 11.2906 15.4746 11.8664 15.1243C12.1919 14.9241 12.267 14.799 12.267 14.4361C12.267 14.1359 12.1919 13.9732 12.0291 13.8732C11.6786 13.698 11.5159 13.7105 10.9526 14.0358Z" fill="#7A808C"/>
</svg>
